<svg xmlns="http://www.w3.org/2000/svg" viewBox="0 0 1200 630" width="1200" height="630">
  <!-- Background: dark navy (theme color) -->
  <rect width="1200" height="630" fill="#0F172A"/>

  <!-- Grid of dots representing 12 games -->
  <g transform="translate(150, 130)">
    <!-- Connecting lines (callback propagation metaphor) -->
    <g stroke="#018786" stroke-width="1.5" opacity="0.5">
      <line x1="150" y1="50" x2="50" y2="120"/>
      <line x1="150" y1="50" x2="250" y2="120"/>
      <line x1="150" y1="50" x2="50" y2="240"/>
      <line x1="150" y1="50" x2="250" y2="240"/>
      <line x1="150" y1="50" x2="150" y2="360"/>
      <line x1="50" y1="120" x2="250" y2="120"/>
      <line x1="50" y1="120" x2="50" y2="240"/>
      <line x1="250" y1="120" x2="250" y2="240"/>
      <line x1="50" y1="240" x2="250" y2="240"/>
      <line x1="50" y1="240" x2="150" y2="360"/>
      <line x1="250" y1="240" x2="150" y2="360"/>
    </g>

    <!-- Nodes: 12 cards in a triangular grid -->
    <g>
      <!-- Row 1: 1 card (top) -->
      <rect x="130" y="20" width="40" height="60" rx="6" fill="#018786" stroke="#FF9800" stroke-width="2"/>

      <!-- Row 2: 2 cards -->
      <rect x="30" y="90" width="40" height="60" rx="6" fill="#018786" opacity="0.85"/>
      <rect x="230" y="90" width="40" height="60" rx="6" fill="#018786" opacity="0.85"/>

      <!-- Row 3: 2 cards -->
      <rect x="30" y="210" width="40" height="60" rx="6" fill="#018786" opacity="0.7"/>
      <rect x="230" y="210" width="40" height="60" rx="6" fill="#018786" opacity="0.7"/>

      <!-- Row 4: 1 card (bottom) -->
      <rect x="130" y="330" width="40" height="60" rx="6" fill="#FF9800"/>
    </g>

    <!-- Highlight ripple on the bottom orange card -->
    <circle cx="150" cy="360" r="55" fill="none" stroke="#FF9800" stroke-width="2" opacity="0.8">
      <animate attributeName="r" values="40;70;40" dur="2.4s" repeatCount="indefinite"/>
      <animate attributeName="opacity" values="0.8;0;0.8" dur="2.4s" repeatCount="indefinite"/>
    </circle>
  </g>

  <!-- Title block -->
  <g transform="translate(580, 180)">
    <text x="0" y="0" font-family="Inter, system-ui, sans-serif" font-size="42" font-weight="700" fill="#F8FAFC">
      Connecting
    </text>
    <text x="0" y="50" font-family="Inter, system-ui, sans-serif" font-size="42" font-weight="700" fill="#F8FAFC">
      the dots
    </text>
    <text x="0" y="120" font-family="Inter, system-ui, sans-serif" font-size="22" font-weight="500" fill="#FF9800">
      2026 · W26 · Devlog
    </text>
    <text x="0" y="170" font-family="Inter, system-ui, sans-serif" font-size="16" font-weight="400" fill="#94A3B8">
      PuzzleSuite · 12 games · 1 architecture
    </text>
  </g>

  <!-- Brand mark bottom-right -->
  <g transform="translate(1100, 580)" text-anchor="end">
    <text font-family="Inter, system-ui, sans-serif" font-size="14" font-weight="600" fill="#018786">ArceApps</text>
  </g>
</svg>