<svg xmlns="http://www.w3.org/2000/svg" viewBox="0 0 800 450" width="800" height="450">
  <defs>
    <linearGradient id="bg" x1="0%" y1="0%" x2="100%" y2="100%">
      <stop offset="0%" stop-color="#0d1b2a"/>
      <stop offset="50%" stop-color="#1b263b"/>
      <stop offset="100%" stop-color="#0d1b2a"/>
    </linearGradient>
    <linearGradient id="teal" x1="0%" y1="0%" x2="100%" y2="0%">
      <stop offset="0%" stop-color="#018786"/>
      <stop offset="100%" stop-color="#00b3b3"/>
    </linearGradient>
    <linearGradient id="orange" x1="0%" y1="0%" x2="100%" y2="0%">
      <stop offset="0%" stop-color="#FF9800"/>
      <stop offset="100%" stop-color="#ffb74d"/>
    </linearGradient>
    <filter id="glow">
      <feGaussianBlur stdDeviation="4" result="blur"/>
      <feMerge><feMergeNode in="blur"/><feMergeNode in="SourceGraphic"/></feMerge>
    </filter>
    <filter id="softGlow">
      <feGaussianBlur stdDeviation="2" result="blur"/>
      <feMerge><feMergeNode in="blur"/><feMergeNode in="SourceGraphic"/></feMerge>
    </filter>
  </defs>

  <!-- Background -->
  <rect width="800" height="450" fill="url(#bg)"/>

  <!-- Grid lines (subtle) -->
  <g stroke="#018786" stroke-width="0.5" opacity="0.1">
    <line x1="0" y1="90" x2="800" y2="90"/>
    <line x1="0" y1="180" x2="800" y2="180"/>
    <line x1="0" y1="270" x2="800" y2="270"/>
    <line x1="0" y1="360" x2="800" y2="360"/>
    <line x1="160" y1="0" x2="160" y2="450"/>
    <line x1="320" y1="0" x2="320" y2="450"/>
    <line x1="480" y1="0" x2="480" y2="450"/>
    <line x1="640" y1="0" x2="640" y2="450"/>
  </g>

  <!-- Left node: CocoIndex (tree structure) -->
  <g transform="translate(100, 200)">
    <!-- Root node -->
    <circle cx="0" cy="0" r="25" fill="url(#teal)" filter="url(#glow)" opacity="0.9"/>
    <!-- Lines to children -->
    <line x1="0" y1="25" x2="-40" y2="70" stroke="#018786" stroke-width="2" opacity="0.6"/>
    <line x1="0" y1="25" x2="0" y2="70" stroke="#018786" stroke-width="2" opacity="0.6"/>
    <line x1="0" y1="25" x2="40" y2="70" stroke="#018786" stroke-width="2" opacity="0.6"/>
    <!-- Child nodes -->
    <circle cx="-40" cy="70" r="15" fill="url(#teal)" opacity="0.7"/>
    <circle cx="0" cy="70" r="15" fill="url(#teal)" opacity="0.7"/>
    <circle cx="40" cy="70" r="15" fill="url(#teal)" opacity="0.7"/>
    <!-- Label -->
    <text x="0" y="110" font-family="monospace" font-size="11" fill="#00b3b3" text-anchor="middle" filter="url(#softGlow)">CocoIndex</text>
    <text x="0" y="124" font-family="monospace" font-size="9" fill="#ffffff" text-anchor="middle" opacity="0.6">embeddings</text>
  </g>

  <!-- Center: Semantic search icon -->
  <g transform="translate(400, 200)">
    <!-- Magnifying glass outer -->
    <circle cx="0" cy="-20" r="50" fill="none" stroke="url(#teal)" stroke-width="6" opacity="0.8" filter="url(#glow)"/>
    <!-- Handle -->
    <line x1="35" y1="15" x2="70" y2="50" stroke="url(#orange)" stroke-width="8" stroke-linecap="round" filter="url(#glow)"/>
    <!-- Code brackets inside -->
    <text x="-20" y="-15" font-family="monospace" font-size="35" fill="#ffffff" opacity="0.9">&lt;</text>
    <text x="5" y="-15" font-family="monospace" font-size="35" fill="#ffffff" opacity="0.9">/&gt;</text>
    <!-- Label below -->
    <text x="0" y="60" font-family="sans-serif" font-size="13" fill="#FF9800" text-anchor="middle" font-weight="bold">SEMANTIC</text>
    <text x="0" y="76" font-family="sans-serif" font-size="11" fill="#ffffff" text-anchor="middle" opacity="0.7">code search</text>
  </g>

  <!-- Right node: CodeGraph (graph structure) -->
  <g transform="translate(650, 200)">
    <!-- Central node -->
    <circle cx="0" cy="0" r="25" fill="url(#orange)" filter="url(#glow)" opacity="0.9"/>
    <!-- Connected nodes in ring -->
    <circle cx="-55" cy="-30" r="12" fill="url(#orange)" opacity="0.7"/>
    <circle cx="55" cy="-30" r="12" fill="url(#orange)" opacity="0.7"/>
    <circle cx="-55" cy="30" r="12" fill="url(#orange)" opacity="0.7"/>
    <circle cx="55" cy="30" r="12" fill="url(#orange)" opacity="0.7"/>
    <circle cx="0" cy="-65" r="12" fill="url(#orange)" opacity="0.7"/>
    <circle cx="0" cy="65" r="12" fill="url(#orange)" opacity="0.7"/>
    <!-- Lines from center to ring -->
    <line x1="-20" y1="-15" x2="-45" y2="-25" stroke="#FF9800" stroke-width="2" opacity="0.5"/>
    <line x1="20" y1="-15" x2="45" y2="-25" stroke="#FF9800" stroke-width="2" opacity="0.5"/>
    <line x1="-20" y1="15" x2="-45" y2="25" stroke="#FF9800" stroke-width="2" opacity="0.5"/>
    <line x1="20" y1="15" x2="45" y2="25" stroke="#FF9800" stroke-width="2" opacity="0.5"/>
    <line x1="0" y1="-25" x2="0" y2="-55" stroke="#FF9800" stroke-width="2" opacity="0.5"/>
    <line x1="0" y1="25" x2="0" y2="55" stroke="#FF9800" stroke-width="2" opacity="0.5"/>
    <!-- Label -->
    <text x="0" y="100" font-family="monospace" font-size="11" fill="#FF9800" text-anchor="middle" filter="url(#softGlow)">CodeGraph</text>
    <text x="0" y="114" font-family="monospace" font-size="9" fill="#ffffff" text-anchor="middle" opacity="0.6">knowledge graph</text>
  </g>

  <!-- Connecting arrows between left and center -->
  <g fill="none" stroke="url(#teal)" stroke-width="2" opacity="0.5">
    <path d="M 180 200 C 230 200 270 200 320 200" marker-end="url(#arrowTeal)"/>
  </g>

  <!-- Connecting arrows between center and right -->
  <g fill="none" stroke="url(#orange)" stroke-width="2" opacity="0.5">
    <path d="M 480 200 C 530 200 570 200 600 200" marker-end="url(#arrowOrange)"/>
  </g>

  <defs>
    <marker id="arrowTeal" markerWidth="10" markerHeight="7" refX="9" refY="3.5" orient="auto">
      <polygon points="0 0, 10 3.5, 0 7" fill="#018786"/>
    </marker>
    <marker id="arrowOrange" markerWidth="10" markerHeight="7" refX="9" refY="3.5" orient="auto">
      <polygon points="0 0, 10 3.5, 0 7" fill="#FF9800"/>
    </marker>
  </defs>

  <!-- Token savings badge -->
  <g transform="translate(400, 380)">
    <rect x="-80" y="-25" width="160" height="50" rx="25" fill="#018786" opacity="0.2" stroke="#018786" stroke-width="1.5"/>
    <text x="0" y="5" font-family="sans-serif" font-size="16" fill="#00b3b3" text-anchor="middle" font-weight="bold" filter="url(#softGlow)">70-92%</text>
    <text x="0" y="22" font-family="sans-serif" font-size="11" fill="#ffffff" text-anchor="middle" opacity="0.8">token savings</text>
  </g>

  <!-- Speed improvement badge -->
  <g transform="translate(550, 380)">
    <rect x="-60" y="-25" width="120" height="50" rx="25" fill="#FF9800" opacity="0.2" stroke="#FF9800" stroke-width="1.5"/>
    <text x="0" y="5" font-family="sans-serif" font-size="16" fill="#FF9800" text-anchor="middle" font-weight="bold" filter="url(#softGlow)">71%</text>
    <text x="0" y="22" font-family="sans-serif" font-size="11" fill="#ffffff" text-anchor="middle" opacity="0.8">faster</text>
  </g>

  <!-- Android/Kotlin badge -->
  <g transform="translate(250, 380)">
    <rect x="-70" y="-25" width="140" height="50" rx="25" fill="#3DDC84" opacity="0.15" stroke="#3DDC84" stroke-width="1.5"/>
    <text x="0" y="5" font-family="sans-serif" font-size="14" fill="#3DDC84" text-anchor="middle" font-weight="bold">Kotlin</text>
    <text x="0" y="22" font-family="sans-serif" font-size="11" fill="#ffffff" text-anchor="middle" opacity="0.8">Android Ready</text>
  </g>

  <!-- Title area -->
  <text x="400" y="45" font-family="sans-serif" font-size="20" font-weight="bold" fill="url(#teal)" text-anchor="middle" filter="url(#glow)">Semantic Code Search for AI Agents</text>
  <text x="400" y="68" font-family="sans-serif" font-size="12" fill="#ffffff" text-anchor="middle" opacity="0.7">CocoIndex Code + CodeGraph | Vector embeddings meets knowledge graphs</text>

  <!-- Bottom accent line -->
  <rect x="0" y="435" width="800" height="15" fill="url(#teal)" opacity="0.3"/>
</svg>