<svg xmlns="http://www.w3.org/2000/svg" viewBox="0 0 1200 630" width="1200" height="630">
  <defs>
    <linearGradient id="bracketLine" x1="0%" y1="0%" x2="100%" y2="0%">
      <stop offset="0%" stop-color="#018786"/>
      <stop offset="50%" stop-color="#018786" stop-opacity="0.85"/>
      <stop offset="100%" stop-color="#FF9800"/>
    </linearGradient>
    <radialGradient id="glowTeal" cx="50%" cy="50%" r="60%">
      <stop offset="0%" stop-color="#018786" stop-opacity="0.45"/>
      <stop offset="100%" stop-color="#018786" stop-opacity="0"/>
    </radialGradient>
    <radialGradient id="glowOrange" cx="50%" cy="50%" r="60%">
      <stop offset="0%" stop-color="#FF9800" stop-opacity="0.55"/>
      <stop offset="100%" stop-color="#FF9800" stop-opacity="0"/>
    </radialGradient>
  </defs>

  <rect width="1200" height="630" fill="#0F172A"/>

  <g stroke="#1A2030" stroke-width="1">
    <line x1="0" y1="155" x2="1200" y2="155"/>
    <line x1="0" y1="315" x2="1200" y2="315"/>
    <line x1="0" y1="475" x2="1200" y2="475"/>
    <line x1="240" y1="0" x2="240" y2="630"/>
    <line x1="480" y1="0" x2="480" y2="630"/>
    <line x1="720" y1="0" x2="720" y2="630"/>
    <line x1="960" y1="0" x2="960" y2="630"/>
  </g>

  <g opacity="0.35">
    <circle cx="160" cy="155" r="80" fill="url(#glowTeal)"/>
    <circle cx="1040" cy="475" r="90" fill="url(#glowOrange)"/>
  </g>

  <g font-family="'JetBrains Mono', 'Fira Code', monospace" font-weight="700">
    <text x="600" y="62" text-anchor="middle" font-size="34" fill="#E2E8F0" letter-spacing="6">CLI TOURNAMENT 2026</text>
    <text x="600" y="98" text-anchor="middle" font-size="20" fill="#94A3B8" letter-spacing="4">SEMIFINAL 1 — AGNOSTIC TITANS</text>
  </g>

  <g stroke="#334155" stroke-width="1.5" fill="none" opacity="0.7">
    <line x1="220" y1="220" x2="240" y2="240"/>
    <line x1="220" y1="260" x2="240" y2="240"/>
    <line x1="220" y1="300" x2="240" y2="280"/>
    <line x1="220" y1="340" x2="240" y2="360"/>
    <line x1="220" y1="380" x2="240" y2="400"/>
    <line x1="220" y1="420" x2="240" y2="420"/>
  </g>

  <g font-family="'JetBrains Mono', 'Fira Code', monospace">
    <rect x="40" y="220" width="180" height="36" rx="6" fill="#1E293B" stroke="#018786" stroke-width="1.5"/>
    <text x="50" y="244" font-size="16" fill="#5EEAD4">01</text>
    <text x="90" y="244" font-size="16" fill="#E2E8F0">AIDER</text>

    <rect x="40" y="270" width="180" height="36" rx="6" fill="#1E293B" stroke="#018786" stroke-width="1.5"/>
    <text x="50" y="294" font-size="16" fill="#5EEAD4">02</text>
    <text x="90" y="294" font-size="16" fill="#E2E8F0">CLINE</text>

    <rect x="40" y="320" width="180" height="36" rx="6" fill="#1E293B" stroke="#018786" stroke-width="1.5"/>
    <text x="50" y="344" font-size="16" fill="#5EEAD4">03</text>
    <text x="90" y="344" font-size="16" fill="#E2E8F0">OPENCODE</text>

    <rect x="40" y="370" width="180" height="36" rx="6" fill="#1E293B" stroke="#018786" stroke-width="1.5"/>
    <text x="50" y="394" font-size="16" fill="#5EEAD4">04</text>
    <text x="90" y="394" font-size="16" fill="#E2E8F0">HERMES</text>

    <rect x="40" y="420" width="180" height="36" rx="6" fill="#1E293B" stroke="#018786" stroke-width="1.5"/>
    <text x="50" y="444" font-size="16" fill="#5EEAD4">05</text>
    <text x="90" y="444" font-size="16" fill="#E2E8F0">ROO CODE</text>

    <rect x="40" y="470" width="180" height="36" rx="6" fill="#1E293B" stroke="#018786" stroke-width="1.5"/>
    <text x="50" y="494" font-size="16" fill="#5EEAD4">06</text>
    <text x="90" y="494" font-size="16" fill="#E2E8F0">CONTINUE.DEV</text>
  </g>

  <g font-family="'JetBrains Mono', 'Fira Code', monospace">
    <rect x="980" y="245" width="180" height="36" rx="6" fill="#1E293B" stroke="#018786" stroke-width="1.5"/>
    <text x="990" y="269" font-size="16" fill="#5EEAD4">07</text>
    <text x="1040" y="269" font-size="16" fill="#E2E8F0">CODY CLI</text>

    <rect x="980" y="295" width="180" height="36" rx="6" fill="#1E293B" stroke="#018786" stroke-width="1.5"/>
    <text x="990" y="319" font-size="16" fill="#5EEAD4">08</text>
    <text x="1040" y="319" font-size="16" fill="#E2E8F0">GOOSE</text>

    <rect x="980" y="345" width="180" height="36" rx="6" fill="#1E293B" stroke="#018786" stroke-width="1.5"/>
    <text x="990" y="369" font-size="16" fill="#5EEAD4">09</text>
    <text x="1040" y="369" font-size="16" fill="#E2E8F0">PLANDEX</text>

    <rect x="980" y="395" width="180" height="36" rx="6" fill="#1E293B" stroke="#018786" stroke-width="1.5"/>
    <text x="990" y="419" font-size="16" fill="#5EEAD4">10</text>
    <text x="1040" y="419" font-size="16" fill="#E2E8F0">MENTAT</text>
  </g>

  <g stroke="url(#bracketLine)" stroke-width="3" fill="none">
    <path d="M 240 240 L 400 240 L 400 270 L 240 270"/>
    <path d="M 240 320 L 400 320 L 400 320 L 240 320"/>
    <path d="M 240 370 L 400 370 L 400 370 L 240 370"/>
    <path d="M 240 420 L 400 420 L 400 420 L 240 420"/>
    <path d="M 240 470 L 400 470 L 400 470 L 240 470"/>
    <path d="M 240 270 L 400 270 L 400 320 L 400 320"/>
    <path d="M 240 370 L 400 370 L 400 320 L 400 320"/>
    <path d="M 240 420 L 400 420 L 400 470 L 400 470"/>
  </g>

  <g stroke="#FF9800" stroke-width="3" fill="none" opacity="0.95">
    <path d="M 980 270 L 820 270 L 820 320 L 980 320"/>
    <path d="M 980 370 L 820 370 L 820 320 L 980 320"/>
    <path d="M 980 420 L 820 420 L 820 470 L 980 470"/>
    <path d="M 820 320 L 600 320"/>
    <path d="M 820 470 L 600 470"/>
  </g>

  <g stroke="#FFB74D" stroke-width="3" fill="none" stroke-dasharray="6 4" opacity="0.85">
    <line x1="600" y1="320" x2="600" y2="395"/>
  </g>

  <g>
    <circle cx="600" cy="140" r="56" fill="url(#glowOrange)"/>
    <circle cx="600" cy="140" r="36" fill="none" stroke="#FF9800" stroke-width="2"/>
    <text x="600" y="135" text-anchor="middle" font-family="'JetBrains Mono', monospace" font-weight="700" font-size="14" fill="#FFB74D">SF1</text>
    <text x="600" y="155" text-anchor="middle" font-family="'JetBrains Mono', monospace" font-size="11" fill="#94A3B8">→ FINAL</text>
  </g>

  <g>
    <circle cx="600" cy="395" r="78" fill="url(#glowTeal)"/>
    <rect x="540" y="370" width="120" height="50" rx="8" fill="#0F172A" stroke="#018786" stroke-width="2"/>
    <text x="600" y="395" text-anchor="middle" font-family="'JetBrains Mono', monospace" font-weight="700" font-size="16" fill="#5EEAD4">2 WINNERS</text>
    <text x="600" y="412" text-anchor="middle" font-family="'JetBrains Mono', monospace" font-size="11" fill="#94A3B8">TO GRAND FINAL</text>
  </g>

  <g font-family="'JetBrains Mono', monospace" font-size="10" fill="#475569">
    <text x="40" y="615">ArceApps · arceapps.com · 2026-07-01</text>
    <text x="1160" y="615" text-anchor="end">BYOK · AGENTIC · CLI</text>
  </g>

  <g fill="#5EEAD4" opacity="0.7">
    <circle cx="160" cy="155" r="2"/>
    <circle cx="220" cy="155" r="2"/>
    <circle cx="280" cy="155" r="2"/>
    <circle cx="960" cy="475" r="2"/>
    <circle cx="1020" cy="475" r="2"/>
    <circle cx="1080" cy="475" r="2"/>
  </g>
</svg>
