<svg width="800" height="600" xmlns="http://www.w3.org/2000/svg">
  <rect width="800" height="600" fill="#f1f5f9" />
  <rect x="150" y="150" width="500" height="300" fill="#e0f2f1" fill-opacity="0.3" />
  <rect x="180" y="180" width="440" height="240" fill="#ffffff" fill-opacity="0.8" />
  <line x1="200" y1="220" x2="580" y2="220" stroke="#005b5b" stroke-width="3" />
  <line x1="200" y1="250" x2="550" y2="250" stroke="#005b5b" stroke-width="3" />
  <line x1="200" y1="280" x2="570" y2="280" stroke="#005b5b" stroke-width="3" />
  <line x1="200" y1="310" x2="530" y2="310" stroke="#005b5b" stroke-width="3" />
  <line x1="200" y1="340" x2="560" y2="340" stroke="#005b5b" stroke-width="3" />
  <line x1="200" y1="370" x2="540" y2="370" stroke="#005b5b" stroke-width="3" />
  <rect x="100" y="100" width="600" height="40" fill="#018786" fill-opacity="0.8" />
  <circle cx="130" cy="120" r="12" fill="#FF9800" fill-opacity="0.9" />
  <circle cx="160" cy="120" r="12" fill="#ffb74d" fill-opacity="0.9" />
  <circle cx="190" cy="120" r="12" fill="#005b5b" fill-opacity="0.5" />
  <rect x="250" y="110" width="400" height="20" fill="#ffffff" fill-opacity="0.3" />
  <rect x="300" y="480" width="200" height="60" rx="30" fill="#018786" fill-opacity="0.8" />
  <circle cx="400" cy="510" r="20" fill="#ffffff" fill-opacity="0.9" />
  <path d="M 390 510 L 398 518 L 410 506" stroke="#018786" stroke-width="3" fill="none" />
  <rect x="50" y="200" width="60" height="200" fill="#fff3e0" fill-opacity="0.4" />
  <rect x="690" y="200" width="60" height="200" fill="#fff3e0" fill-opacity="0.4" />
</svg>
