<svg width="1200" height="630" viewBox="0 0 1200 630" xmlns="http://www.w3.org/2000/svg">
  <defs>
    <linearGradient id="bgGradient" x1="0%" y1="0%" x2="100%" y2="100%">
      <stop offset="0%" style="stop-color:#004D40;stop-opacity:1" />
      <stop offset="100%" style="stop-color:#018786;stop-opacity:1" />
    </linearGradient>
  </defs>
  
  <rect width="100%" height="100%" fill="url(#bgGradient)"/>
  
  <!-- Flow chart elements -->
  <rect x="150" y="100" width="200" height="80" fill="#FF9800" rx="10"/>
  <rect x="500" y="100" width="200" height="80" fill="#FF9800" fill-opacity="0.7" rx="10"/>
  <rect x="850" y="100" width="200" height="80" fill="#FF9800" fill-opacity="0.4" rx="10"/>
  
  <rect x="325" y="300" width="200" height="80" fill="#FF9800" fill-opacity="0.7" rx="10"/>
  <rect x="675" y="300" width="200" height="80" fill="#FF9800" fill-opacity="0.4" rx="10"/>
  
  <rect x="500" y="500" width="200" height="80" fill="#FFFFFF" rx="10"/>
  
  <!-- Connection lines -->
  <line x1="250" y1="180" x2="425" y2="300" stroke="#FFFFFF" stroke-width="4"/>
  <line x1="600" y1="180" x2="600" y2="300" stroke="#FFFFFF" stroke-width="4"/>
  <line x1="950" y1="180" x2="775" y2="300" stroke="#FFFFFF" stroke-width="4"/>
  <line x1="425" y1="380" x2="600" y2="500" stroke="#FFFFFF" stroke-width="4"/>
  <line x1="775" y1="380" x2="600" y2="500" stroke="#FFFFFF" stroke-width="4"/>
  
  <!-- Checkmark in final box -->
  <path d="M550 540 L580 570 L650 510" stroke="#018786" stroke-width="8" fill="none"/>
</svg>
