<svg width="1200" height="630" viewBox="0 0 1200 630" xmlns="http://www.w3.org/2000/svg">
  <defs>
    <linearGradient id="bgGradient" x1="0%" y1="0%" x2="100%" y2="100%">
      <stop offset="0%" style="stop-color:#018786;stop-opacity:1" />
      <stop offset="100%" style="stop-color:#01574F;stop-opacity:1" />
    </linearGradient>
  </defs>
  
  <rect width="100%" height="100%" fill="url(#bgGradient)"/>
  
  <!-- Mobile device frame -->
  <rect x="450" y="100" width="300" height="430" fill="#004D40" rx="30"/>
  <rect x="470" y="130" width="260" height="370" fill="#FFFFFF" rx="5"/>
  
  <!-- UI Elements inside phone -->
  <rect x="490" y="150" width="220" height="40" fill="#FF9800" rx="20"/>
  <rect x="490" y="210" width="220" height="60" fill="#E0E0E0" rx="5"/>
  <rect x="490" y="290" width="100" height="100" fill="#E0E0E0" rx="5"/>
  <rect x="610" y="290" width="100" height="100" fill="#E0E0E0" rx="5"/>
  <rect x="490" y="410" width="220" height="60" fill="#E0E0E0" rx="5"/>
  
  <!-- User icon -->
  <circle cx="200" cy="315" r="80" fill="#FF9800" opacity="0.3"/>
  <circle cx="200" cy="290" r="30" fill="#FF9800"/>
  <path d="M150 360 Q200 320 250 360" fill="#FF9800"/>
  
  <!-- Stars (rating/feedback) -->
  <g transform="translate(900, 200)">
    <polygon points="50,10 61,40 92,40 67,58 77,88 50,68 23,88 33,58 8,40 39,40" fill="#FF9800"/>
    <polygon points="50,130 61,160 92,160 67,178 77,208 50,188 23,208 33,178 8,160 39,160" fill="#FF9800" opacity="0.5"/>
    <polygon points="50,250 61,280 92,280 67,298 77,328 50,308 23,328 33,298 8,280 39,280" fill="#FF9800" opacity="0.3"/>
  </g>
</svg>
