<svg width="1200" height="630" viewBox="0 0 1200 630" xmlns="http://www.w3.org/2000/svg">
  <defs>
    <linearGradient id="bgGradient" x1="0%" y1="0%" x2="100%" y2="100%">
      <stop offset="0%" style="stop-color:#018786;stop-opacity:1" />
      <stop offset="100%" style="stop-color:#004D40;stop-opacity:1" />
    </linearGradient>
    <pattern id="grid" width="40" height="40" patternUnits="userSpaceOnUse">
      <path d="M 40 0 L 0 0 0 40" fill="none" stroke="rgba(255,255,255,0.05)" stroke-width="1"/>
    </pattern>
  </defs>

  <rect width="100%" height="100%" fill="url(#bgGradient)"/>
  <rect width="100%" height="100%" fill="url(#grid)"/>

  <!-- Geometric Shapes -->
  <circle cx="1050" cy="150" r="200" fill="#FF9800" fill-opacity="0.1"/>
  <rect x="100" y="450" width="150" height="150" fill="#FF9800" fill-opacity="0.1" transform="rotate(45 175 525)"/>

  <!-- Code/Tech Icon Style -->
  <g transform="translate(600, 315) scale(3)" fill="#FFFFFF" fill-opacity="0.9" text-anchor="middle" dominant-baseline="middle">
      <path d="M9.4 16.6L4.8 12l4.6-4.6L8 6l-6 6 6 6 1.4-1.4zm5.2 0l4.6-4.6-4.6-4.6L16 6l6 6-6 6-1.4-1.4z" transform="translate(-12, -12)"/>
  </g>

  <!-- Text -->
  <text x="600" y="450" font-family="monospace" font-size="48" fill="white" text-anchor="middle" font-weight="bold" letter-spacing="4">DEVLOG</text>
</svg>
