<svg width="1200" height="630" viewBox="0 0 1200 630" xmlns="http://www.w3.org/2000/svg">
  <defs>
    <linearGradient id="bgGradient" x1="0%" y1="0%" x2="100%" y2="100%">
      <stop offset="0%" style="stop-color:#018786;stop-opacity:1" />
      <stop offset="100%" style="stop-color:#004D40;stop-opacity:1" />
    </linearGradient>
  </defs>
  
  <rect width="100%" height="100%" fill="url(#bgGradient)"/>
  
  <!-- Domino pieces -->
  <g transform="translate(200, 200)">
    <rect x="0" y="0" width="100" height="200" fill="#FFFFFF" rx="10"/>
    <line x1="0" y1="100" x2="100" y2="100" stroke="#333" stroke-width="3"/>
    <circle cx="30" cy="50" r="12" fill="#FF9800"/>
    <circle cx="70" cy="50" r="12" fill="#FF9800"/>
    <circle cx="50" cy="150" r="12" fill="#FF9800"/>
  </g>
  
  <g transform="translate(350, 300)">
    <rect x="0" y="0" width="100" height="200" fill="#FFFFFF" rx="10"/>
    <line x1="0" y1="100" x2="100" y2="100" stroke="#333" stroke-width="3"/>
    <circle cx="50" cy="50" r="12" fill="#FF9800"/>
    <circle cx="30" cy="140" r="12" fill="#FF9800"/>
    <circle cx="70" cy="140" r="12" fill="#FF9800"/>
    <circle cx="50" cy="170" r="12" fill="#FF9800"/>
  </g>
  
  <g transform="translate(850, 250)">
    <rect x="0" y="0" width="200" height="100" fill="#FFFFFF" rx="10"/>
    <line x1="100" y1="0" x2="100" y2="100" stroke="#333" stroke-width="3"/>
    <circle cx="50" cy="50" r="12" fill="#FF9800"/>
    <circle cx="150" cy="30" r="12" fill="#FF9800"/>
    <circle cx="150" cy="70" r="12" fill="#FF9800"/>
  </g>
  
  <!-- Number 9 in corner -->
  <text x="950" y="150" font-family="sans-serif" font-size="120" fill="#FF9800" font-weight="bold" opacity="0.3">9</text>
</svg>
