<svg width="1200" height="630" viewBox="0 0 1200 630" xmlns="http://www.w3.org/2000/svg">
  <rect width="100%" height="100%" fill="#018786"/>
  
  <!-- Diamond/gem being polished -->
  <g transform="translate(600, 315)">
    <polygon points="0,-150 100,0 0,150 -100,0" fill="#FF9800"/>
    <polygon points="0,-150 80,-50 0,0 -80,-50" fill="#FFB84D"/>
    <polygon points="0,0 80,-50 100,0 80,50" fill="#FF8C00"/>
    <polygon points="0,0 -80,-50 -100,0 -80,50" fill="#FF8C00"/>
    <polygon points="0,0 80,50 0,150 -80,50" fill="#E67E00"/>
  </g>
  
  <!-- Sparkles around -->
  <g fill="#FFFFFF">
    <circle cx="300" cy="150" r="8"/>
    <circle cx="280" cy="180" r="5"/>
    <circle cx="330" cy="170" r="6"/>
    
    <circle cx="900" cy="150" r="8"/>
    <circle cx="920" cy="180" r="5"/>
    <circle cx="870" cy="170" r="6"/>
    
    <circle cx="300" cy="480" r="8"/>
    <circle cx="280" cy="450" r="5"/>
    <circle cx="330" cy="460" r="6"/>
    
    <circle cx="900" cy="480" r="8"/>
    <circle cx="920" cy="450" r="5"/>
    <circle cx="870" cy="460" r="6"/>
  </g>
</svg>
