<?xml version="1.0" encoding="UTF-8"?>
<svg xmlns="http://www.w3.org/2000/svg" viewBox="0 0 1200 630" width="1200" height="630">
  <defs>
    <linearGradient id="bgGrad" x1="0" y1="0" x2="1" y2="1">
      <stop offset="0%" stop-color="#0F172A"/>
      <stop offset="100%" stop-color="#1E293B"/>
    </linearGradient>
    <linearGradient id="tealGrad" x1="0" y1="0" x2="1" y2="1">
      <stop offset="0%" stop-color="#018786"/>
      <stop offset="100%" stop-color="#0FB5B0"/>
    </linearGradient>
    <linearGradient id="orangeGrad" x1="0" y1="0" x2="1" y2="1">
      <stop offset="0%" stop-color="#FF9800"/>
      <stop offset="100%" stop-color="#FFB74D"/>
    </linearGradient>
    <filter id="softGlow" x="-50%" y="-50%" width="200%" height="200%">
      <feGaussianBlur stdDeviation="6" result="blur"/>
      <feMerge>
        <feMergeNode in="blur"/>
        <feMergeNode in="SourceGraphic"/>
      </feMerge>
    </filter>
  </defs>

  <rect width="1200" height="630" fill="url(#bgGrad)"/>

  <g opacity="0.06" stroke="#94A3B8" stroke-width="1">
    <line x1="0" y1="100" x2="1200" y2="100"/>
    <line x1="0" y1="200" x2="1200" y2="200"/>
    <line x1="0" y1="300" x2="1200" y2="300"/>
    <line x1="0" y1="400" x2="1200" y2="400"/>
    <line x1="0" y1="500" x2="1200" y2="500"/>
    <line x1="200" y1="0" x2="200" y2="630"/>
    <line x1="400" y1="0" x2="400" y2="630"/>
    <line x1="600" y1="0" x2="600" y2="630"/>
    <line x1="800" y1="0" x2="800" y2="630"/>
    <line x1="1000" y1="0" x2="1000" y2="630"/>
  </g>

  <g transform="translate(600, 315)">
    <circle r="110" fill="none" stroke="#018786" stroke-width="2" opacity="0.4" stroke-dasharray="4 6"/>
    <circle r="80" fill="none" stroke="#FF9800" stroke-width="1.5" opacity="0.4" stroke-dasharray="2 4"/>
    <circle r="40" fill="url(#tealGrad)" filter="url(#softGlow)"/>
    <circle r="40" fill="none" stroke="#0FB5B0" stroke-width="2"/>
    <text x="0" y="6" text-anchor="middle" font-family="ui-monospace, 'SF Mono', Menlo, monospace" font-size="14" font-weight="700" fill="#0F172A" letter-spacing="1">GSD</text>
  </g>

  <g transform="translate(600, 315)">

    <g transform="rotate(-90)">
      <circle cx="180" cy="0" r="56" fill="url(#tealGrad)"/>
      <circle cx="180" cy="0" r="56" fill="none" stroke="#0FB5B0" stroke-width="2" opacity="0.8"/>
      <text x="180" y="-6" text-anchor="middle" font-family="ui-sans-serif, system-ui, -apple-system, Segoe UI, Roboto" font-size="13" font-weight="700" fill="#0F172A">DISCUSS</text>
      <text x="180" y="12" text-anchor="middle" font-family="ui-sans-serif, system-ui, -apple-system, Segoe UI, Roboto" font-size="10" fill="#0F172A" opacity="0.85">socratic Q&amp;A</text>
    </g>

    <g transform="rotate(-18)">
      <circle cx="180" cy="0" r="56" fill="url(#orangeGrad)"/>
      <circle cx="180" cy="0" r="56" fill="none" stroke="#FFB74D" stroke-width="2" opacity="0.8"/>
      <text x="180" y="-6" text-anchor="middle" font-family="ui-sans-serif, system-ui, -apple-system, Segoe UI, Roboto" font-size="13" font-weight="700" fill="#0F172A">PLAN</text>
      <text x="180" y="12" text-anchor="middle" font-family="ui-sans-serif, system-ui, -apple-system, Segoe UI, Roboto" font-size="10" fill="#0F172A" opacity="0.85">atomic PLAN.md</text>
    </g>

    <g transform="rotate(54)">
      <circle cx="180" cy="0" r="56" fill="url(#tealGrad)"/>
      <circle cx="180" cy="0" r="56" fill="none" stroke="#0FB5B0" stroke-width="2" opacity="0.8"/>
      <text x="180" y="-6" text-anchor="middle" font-family="ui-sans-serif, system-ui, -apple-system, Segoe UI, Roboto" font-size="13" font-weight="700" fill="#0F172A">EXECUTE</text>
      <text x="180" y="12" text-anchor="middle" font-family="ui-sans-serif, system-ui, -apple-system, Segoe UI, Roboto" font-size="10" fill="#0F172A" opacity="0.85">parallel waves</text>
    </g>

    <g transform="rotate(126)">
      <circle cx="180" cy="0" r="56" fill="url(#orangeGrad)"/>
      <circle cx="180" cy="0" r="56" fill="none" stroke="#FFB74D" stroke-width="2" opacity="0.8"/>
      <text x="180" y="-6" text-anchor="middle" font-family="ui-sans-serif, system-ui, -apple-system, Segoe UI, Roboto" font-size="13" font-weight="700" fill="#0F172A">VERIFY</text>
      <text x="180" y="12" text-anchor="middle" font-family="ui-sans-serif, system-ui, -apple-system, Segoe UI, Roboto" font-size="10" fill="#0F172A" opacity="0.85">UAT gate</text>
    </g>

    <g transform="rotate(198)">
      <circle cx="180" cy="0" r="56" fill="url(#tealGrad)"/>
      <circle cx="180" cy="0" r="56" fill="none" stroke="#0FB5B0" stroke-width="2" opacity="0.8"/>
      <text x="180" y="-6" text-anchor="middle" font-family="ui-sans-serif, system-ui, -apple-system, Segoe UI, Roboto" font-size="13" font-weight="700" fill="#0F172A">SHIP</text>
      <text x="180" y="12" text-anchor="middle" font-family="ui-sans-serif, system-ui, -apple-system, Segoe UI, Roboto" font-size="10" fill="#0F172A" opacity="0.85">atomic PR</text>
    </g>

    <path d="M 180 0 A 180 180 0 0 1 171.47 56.13 L 118.06 38.66 A 118 118 0 0 0 118 0 Z" fill="#0FB5B0" opacity="0.7"/>
    <path d="M -30.7 177.36 A 180 180 0 0 1 -56.13 171.47 L -38.66 118.06 A 118 118 0 0 0 -20.09 116.65 Z" fill="#FFB74D" opacity="0.7"/>
    <path d="M -177.36 30.7 A 180 180 0 0 1 -171.47 -56.13 L -118.06 -38.66 A 118 118 0 0 0 -116.65 -20.09 Z" fill="#0FB5B0" opacity="0.7"/>
    <path d="M -56.13 -171.47 A 180 180 0 0 1 56.13 -171.47 L 38.66 -118.06 A 118 118 0 0 0 20.09 -116.65 Z" fill="#FFB74D" opacity="0.7"/>
    <path d="M 171.47 -56.13 A 180 180 0 0 1 177.36 30.7 L 116.65 20.09 A 118 118 0 0 0 118 0 Z" fill="#0FB5B0" opacity="0.7"/>
  </g>

  <g transform="translate(600, 110)">
    <rect x="-260" y="-30" width="520" height="56" rx="28" fill="#0F172A" stroke="#018786" stroke-width="1.5" opacity="0.95"/>
    <text x="0" y="6" text-anchor="middle" font-family="ui-monospace, 'SF Mono', Menlo, monospace" font-size="22" font-weight="700" fill="#FF9800" letter-spacing="3">GIT . SHIP . DONE .</text>
  </g>

  <g transform="translate(80, 555)">
    <text x="0" y="0" font-family="ui-sans-serif, system-ui, -apple-system, Segoe UI, Roboto" font-size="18" font-weight="700" fill="#E2E8F0">GSD Core</text>
    <text x="0" y="22" font-family="ui-sans-serif, system-ui, -apple-system, Segoe UI, Roboto" font-size="12" fill="#94A3B8">Context engineering para agentes de codificación</text>
  </g>

  <g transform="translate(1120, 555)" text-anchor="end">
    <text x="0" y="0" font-family="ui-monospace, 'SF Mono', Menlo, monospace" font-size="14" fill="#94A3B8">33 agentes</text>
    <text x="0" y="20" font-family="ui-monospace, 'SF Mono', Menlo, monospace" font-size="14" fill="#94A3B8">16+ runtimes</text>
    <text x="0" y="40" font-family="ui-monospace, 'SF Mono', Menlo, monospace" font-size="14" fill="#94A3B8">MIT · open source</text>
  </g>

  <g transform="translate(80, 80)">
    <rect x="0" y="0" width="8" height="40" fill="#FF9800"/>
    <rect x="14" y="0" width="8" height="40" fill="#FF9800" opacity="0.7"/>
    <rect x="28" y="0" width="8" height="40" fill="#018786" opacity="0.5"/>
  </g>
</svg>
