<svg width="800" height="600" xmlns="http://www.w3.org/2000/svg">
  <rect width="800" height="600" fill="#f8fafc" />
  <line x1="202" y1="0" x2="796" y2="127" stroke="#FF9800" stroke-width="12" stroke-opacity="0.53" />
  <line x1="744" y1="360" x2="468" y2="7" stroke="#FF9800" stroke-width="13" stroke-opacity="0.11" />
  <line x1="787" y1="468" x2="83" y2="336" stroke="#018786" stroke-width="11" stroke-opacity="0.13" />
  <line x1="367" y1="396" x2="36" y2="45" stroke="#e0f2f1" stroke-width="7" stroke-opacity="0.16" />
  <rect x="44" y="365" width="332" height="287" fill="#018786" fill-opacity="0.26" />
  <circle cx="445" cy="403" r="132" fill="#fff3e0" fill-opacity="0.31" />
  <rect x="256" y="2" width="374" height="60" fill="#018786" fill-opacity="0.38" />
  <circle cx="647" cy="156" r="165" fill="#ffb74d" fill-opacity="0.46" />
  <rect x="523" y="428" width="110" height="357" fill="#005b5b" fill-opacity="0.51" />
  <rect x="748" y="355" width="257" height="52" fill="#fff3e0" fill-opacity="0.36" />
  <line x1="36" y1="301" x2="380" y2="459" stroke="#005b5b" stroke-width="4" stroke-opacity="0.20" />
  <line x1="688" y1="164" x2="9" y2="587" stroke="#005b5b" stroke-width="14" stroke-opacity="0.37" />
  <circle cx="393" cy="202" r="124" fill="#005b5b" fill-opacity="0.16" />
  <circle cx="554" cy="218" r="132" fill="#fff3e0" fill-opacity="0.55" />
  <circle cx="373" cy="575" r="83" fill="#ffb74d" fill-opacity="0.50" />
  <circle cx="507" cy="305" r="114" fill="#FF9800" fill-opacity="0.21" />
  <circle cx="563" cy="249" r="71" fill="#FF9800" fill-opacity="0.60" />
  <circle cx="16" cy="168" r="184" fill="#e0f2f1" fill-opacity="0.15" />
  <rect x="491" y="204" width="308" height="227" fill="#018786" fill-opacity="0.55" />
</svg>