<svg width="800" height="600" xmlns="http://www.w3.org/2000/svg">
  <rect width="800" height="600" fill="#ffffff" />
  <line x1="743" y1="546" x2="269" y2="587" stroke="#fff3e0" stroke-width="4" stroke-opacity="0.51" />
  <rect x="61" y="150" width="390" height="277" fill="#005b5b" fill-opacity="0.59" />
  <line x1="103" y1="346" x2="137" y2="452" stroke="#018786" stroke-width="6" stroke-opacity="0.18" />
  <line x1="245" y1="342" x2="750" y2="45" stroke="#fff3e0" stroke-width="5" stroke-opacity="0.42" />
  <circle cx="256" cy="85" r="75" fill="#ffb74d" fill-opacity="0.39" />
  <circle cx="237" cy="559" r="86" fill="#ffb74d" fill-opacity="0.25" />
  <rect x="224" y="182" width="251" height="260" fill="#FF9800" fill-opacity="0.41" />
  <line x1="29" y1="84" x2="384" y2="262" stroke="#fff3e0" stroke-width="4" stroke-opacity="0.51" />
  <circle cx="637" cy="435" r="112" fill="#e0f2f1" fill-opacity="0.17" />
  <circle cx="337" cy="392" r="38" fill="#FF9800" fill-opacity="0.16" />
  <circle cx="152" cy="483" r="26" fill="#FF9800" fill-opacity="0.52" />
  <line x1="65" y1="346" x2="532" y2="107" stroke="#018786" stroke-width="15" stroke-opacity="0.30" />
  <rect x="533" y="391" width="133" height="274" fill="#e0f2f1" fill-opacity="0.27" />
  <rect x="464" y="341" width="284" height="112" fill="#fff3e0" fill-opacity="0.58" />
  <line x1="581" y1="344" x2="745" y2="331" stroke="#ffb74d" stroke-width="7" stroke-opacity="0.36" />
  <circle cx="759" cy="236" r="155" fill="#FF9800" fill-opacity="0.11" />
  <rect x="40" y="523" width="287" height="80" fill="#ffb74d" fill-opacity="0.29" />
  <rect x="746" y="79" width="323" height="55" fill="#fff3e0" fill-opacity="0.30" />
  <circle cx="25" cy="402" r="97" fill="#FF9800" fill-opacity="0.32" />
  <line x1="634" y1="409" x2="251" y2="183" stroke="#fff3e0" stroke-width="13" stroke-opacity="0.18" />
  <rect x="6" y="337" width="136" height="155" fill="#fff3e0" fill-opacity="0.14" />
</svg>