<svg width="800" height="600" xmlns="http://www.w3.org/2000/svg">
  <rect width="800" height="600" fill="#f8fafc" />
  <rect x="641" y="224" width="141" height="397" fill="#fff3e0" fill-opacity="0.43" />
  <rect x="328" y="161" width="228" height="257" fill="#ffb74d" fill-opacity="0.40" />
  <line x1="611" y1="161" x2="694" y2="113" stroke="#ffb74d" stroke-width="10" stroke-opacity="0.22" />
  <rect x="559" y="108" width="331" height="368" fill="#018786" fill-opacity="0.21" />
  <rect x="788" y="278" width="373" height="264" fill="#ffb74d" fill-opacity="0.51" />
  <rect x="45" y="416" width="118" height="311" fill="#ffb74d" fill-opacity="0.59" />
  <rect x="535" y="228" width="184" height="205" fill="#fff3e0" fill-opacity="0.49" />
  <rect x="4" y="169" width="202" height="299" fill="#fff3e0" fill-opacity="0.36" />
  <rect x="25" y="212" width="385" height="369" fill="#FF9800" fill-opacity="0.16" />
  <line x1="338" y1="125" x2="81" y2="387" stroke="#018786" stroke-width="9" stroke-opacity="0.57" />
  <circle cx="116" cy="470" r="103" fill="#e0f2f1" fill-opacity="0.46" />
  <line x1="744" y1="36" x2="346" y2="77" stroke="#018786" stroke-width="4" stroke-opacity="0.14" />
  <line x1="471" y1="133" x2="61" y2="267" stroke="#e0f2f1" stroke-width="8" stroke-opacity="0.29" />
  <line x1="255" y1="484" x2="162" y2="216" stroke="#fff3e0" stroke-width="4" stroke-opacity="0.39" />
  <circle cx="178" cy="586" r="94" fill="#005b5b" fill-opacity="0.46" />
  <circle cx="534" cy="57" r="49" fill="#ffb74d" fill-opacity="0.37" />
  <circle cx="504" cy="458" r="159" fill="#018786" fill-opacity="0.57" />
  <line x1="237" y1="461" x2="461" y2="327" stroke="#ffb74d" stroke-width="7" stroke-opacity="0.29" />
  <circle cx="756" cy="500" r="30" fill="#fff3e0" fill-opacity="0.32" />
  <circle cx="620" cy="385" r="193" fill="#018786" fill-opacity="0.18" />
  <line x1="509" y1="404" x2="113" y2="308" stroke="#ffb74d" stroke-width="14" stroke-opacity="0.45" />
  <circle cx="227" cy="142" r="60" fill="#005b5b" fill-opacity="0.46" />
  <rect x="30" y="265" width="76" height="119" fill="#e0f2f1" fill-opacity="0.14" />
  <line x1="524" y1="289" x2="795" y2="181" stroke="#ffb74d" stroke-width="15" stroke-opacity="0.57" />
  <rect x="742" y="340" width="348" height="302" fill="#005b5b" fill-opacity="0.51" />
  <circle cx="121" cy="420" r="137" fill="#fff3e0" fill-opacity="0.32" />
  <circle cx="527" cy="220" r="156" fill="#ffb74d" fill-opacity="0.54" />
  <line x1="745" y1="184" x2="562" y2="159" stroke="#ffb74d" stroke-width="12" stroke-opacity="0.60" />
  <circle cx="627" cy="206" r="20" fill="#005b5b" fill-opacity="0.60" />
</svg>