<svg width="800" height="600" xmlns="http://www.w3.org/2000/svg">
  <rect width="800" height="600" fill="#ffffff" />
  <circle cx="151" cy="313" r="24" fill="#FF9800" fill-opacity="0.25" />
  <circle cx="176" cy="475" r="26" fill="#018786" fill-opacity="0.36" />
  <rect x="730" y="363" width="379" height="97" fill="#ffb74d" fill-opacity="0.39" />
  <line x1="122" y1="383" x2="691" y2="315" stroke="#005b5b" stroke-width="5" stroke-opacity="0.47" />
  <line x1="480" y1="492" x2="756" y2="241" stroke="#ffb74d" stroke-width="6" stroke-opacity="0.47" />
  <circle cx="605" cy="309" r="100" fill="#FF9800" fill-opacity="0.45" />
  <line x1="61" y1="453" x2="491" y2="298" stroke="#018786" stroke-width="9" stroke-opacity="0.29" />
  <circle cx="745" cy="277" r="36" fill="#005b5b" fill-opacity="0.39" />
  <line x1="799" y1="138" x2="794" y2="538" stroke="#005b5b" stroke-width="11" stroke-opacity="0.56" />
  <line x1="31" y1="55" x2="499" y2="391" stroke="#fff3e0" stroke-width="5" stroke-opacity="0.40" />
  <circle cx="35" cy="300" r="191" fill="#e0f2f1" fill-opacity="0.27" />
  <line x1="141" y1="576" x2="124" y2="289" stroke="#ffb74d" stroke-width="5" stroke-opacity="0.54" />
  <circle cx="692" cy="572" r="95" fill="#e0f2f1" fill-opacity="0.34" />
  <rect x="167" y="483" width="297" height="73" fill="#ffb74d" fill-opacity="0.16" />
  <rect x="581" y="585" width="381" height="165" fill="#FF9800" fill-opacity="0.22" />
  <circle cx="478" cy="161" r="21" fill="#018786" fill-opacity="0.55" />
  <rect x="601" y="572" width="279" height="271" fill="#e0f2f1" fill-opacity="0.51" />
  <circle cx="204" cy="37" r="102" fill="#005b5b" fill-opacity="0.14" />
  <rect x="742" y="302" width="399" height="260" fill="#018786" fill-opacity="0.14" />
  <circle cx="452" cy="283" r="116" fill="#018786" fill-opacity="0.33" />
  <line x1="373" y1="81" x2="94" y2="241" stroke="#ffb74d" stroke-width="6" stroke-opacity="0.26" />
  <rect x="600" y="430" width="179" height="316" fill="#fff3e0" fill-opacity="0.37" />
  <line x1="648" y1="97" x2="229" y2="443" stroke="#ffb74d" stroke-width="5" stroke-opacity="0.57" />
</svg>