<svg width="800" height="600" xmlns="http://www.w3.org/2000/svg">
  <rect width="800" height="600" fill="#f8fafc" />
  <circle cx="545" cy="367" r="192" fill="#018786" fill-opacity="0.52" />
  <circle cx="433" cy="261" r="31" fill="#005b5b" fill-opacity="0.56" />
  <line x1="200" y1="497" x2="476" y2="101" stroke="#e0f2f1" stroke-width="6" stroke-opacity="0.20" />
  <circle cx="668" cy="536" r="73" fill="#e0f2f1" fill-opacity="0.58" />
  <circle cx="292" cy="157" r="60" fill="#005b5b" fill-opacity="0.29" />
  <circle cx="211" cy="66" r="180" fill="#ffb74d" fill-opacity="0.53" />
  <line x1="602" y1="160" x2="176" y2="27" stroke="#FF9800" stroke-width="8" stroke-opacity="0.46" />
  <circle cx="652" cy="344" r="127" fill="#FF9800" fill-opacity="0.39" />
  <line x1="536" y1="252" x2="354" y2="2" stroke="#ffb74d" stroke-width="4" stroke-opacity="0.13" />
  <rect x="111" y="266" width="102" height="355" fill="#FF9800" fill-opacity="0.14" />
  <circle cx="628" cy="243" r="144" fill="#005b5b" fill-opacity="0.52" />
  <line x1="552" y1="34" x2="163" y2="460" stroke="#FF9800" stroke-width="15" stroke-opacity="0.50" />
  <line x1="135" y1="520" x2="629" y2="209" stroke="#ffb74d" stroke-width="2" stroke-opacity="0.29" />
  <line x1="600" y1="64" x2="380" y2="123" stroke="#e0f2f1" stroke-width="7" stroke-opacity="0.25" />
  <circle cx="104" cy="83" r="167" fill="#FF9800" fill-opacity="0.14" />
  <rect x="510" y="409" width="105" height="117" fill="#ffb74d" fill-opacity="0.46" />
</svg>