<svg width="800" height="600" xmlns="http://www.w3.org/2000/svg">
  <rect width="800" height="600" fill="#f8fafc" />
  <circle cx="765" cy="431" r="115" fill="#018786" fill-opacity="0.29" />
  <rect x="29" y="535" width="195" height="167" fill="#fff3e0" fill-opacity="0.51" />
  <line x1="404" y1="444" x2="331" y2="197" stroke="#018786" stroke-width="4" stroke-opacity="0.27" />
  <circle cx="576" cy="283" r="87" fill="#fff3e0" fill-opacity="0.47" />
  <line x1="687" y1="39" x2="698" y2="341" stroke="#FF9800" stroke-width="9" stroke-opacity="0.25" />
  <rect x="430" y="5" width="357" height="334" fill="#fff3e0" fill-opacity="0.33" />
  <circle cx="336" cy="199" r="164" fill="#fff3e0" fill-opacity="0.21" />
  <line x1="475" y1="521" x2="245" y2="308" stroke="#e0f2f1" stroke-width="7" stroke-opacity="0.29" />
  <rect x="650" y="224" width="307" height="300" fill="#005b5b" fill-opacity="0.55" />
  <line x1="200" y1="353" x2="222" y2="249" stroke="#e0f2f1" stroke-width="13" stroke-opacity="0.16" />
  <circle cx="717" cy="476" r="132" fill="#ffb74d" fill-opacity="0.31" />
  <circle cx="781" cy="263" r="195" fill="#ffb74d" fill-opacity="0.33" />
  <line x1="589" y1="575" x2="398" y2="575" stroke="#e0f2f1" stroke-width="8" stroke-opacity="0.42" />
  <line x1="437" y1="272" x2="382" y2="180" stroke="#018786" stroke-width="14" stroke-opacity="0.40" />
  <line x1="603" y1="523" x2="177" y2="549" stroke="#fff3e0" stroke-width="5" stroke-opacity="0.49" />
  <line x1="637" y1="225" x2="11" y2="81" stroke="#ffb74d" stroke-width="12" stroke-opacity="0.11" />
  <circle cx="789" cy="275" r="27" fill="#ffb74d" fill-opacity="0.43" />
  <circle cx="652" cy="42" r="36" fill="#FF9800" fill-opacity="0.59" />
  <line x1="773" y1="124" x2="748" y2="12" stroke="#005b5b" stroke-width="11" stroke-opacity="0.17" />
  <rect x="496" y="371" width="274" height="257" fill="#e0f2f1" fill-opacity="0.42" />
  <rect x="74" y="264" width="241" height="318" fill="#fff3e0" fill-opacity="0.50" />
  <circle cx="465" cy="569" r="119" fill="#FF9800" fill-opacity="0.19" />
  <circle cx="567" cy="315" r="49" fill="#ffb74d" fill-opacity="0.13" />
  <circle cx="658" cy="46" r="72" fill="#fff3e0" fill-opacity="0.52" />
  <circle cx="800" cy="53" r="68" fill="#ffb74d" fill-opacity="0.15" />
  <circle cx="451" cy="271" r="124" fill="#FF9800" fill-opacity="0.34" />
  <circle cx="442" cy="31" r="24" fill="#005b5b" fill-opacity="0.46" />
  <circle cx="224" cy="127" r="128" fill="#ffb74d" fill-opacity="0.19" />
  <rect x="190" y="146" width="192" height="156" fill="#018786" fill-opacity="0.45" />
  <circle cx="688" cy="188" r="83" fill="#ffb74d" fill-opacity="0.57" />
</svg>