<svg width="800" height="600" xmlns="http://www.w3.org/2000/svg">
  <rect width="800" height="600" fill="#ffffff" />
  <line x1="556" y1="395" x2="488" y2="101" stroke="#e0f2f1" stroke-width="11" stroke-opacity="0.48" />
  <circle cx="598" cy="236" r="193" fill="#FF9800" fill-opacity="0.49" />
  <rect x="560" y="224" width="177" height="242" fill="#005b5b" fill-opacity="0.43" />
  <rect x="247" y="155" width="347" height="162" fill="#005b5b" fill-opacity="0.18" />
  <line x1="670" y1="178" x2="626" y2="250" stroke="#ffb74d" stroke-width="4" stroke-opacity="0.33" />
  <circle cx="71" cy="479" r="191" fill="#fff3e0" fill-opacity="0.42" />
  <circle cx="360" cy="430" r="113" fill="#018786" fill-opacity="0.38" />
  <rect x="297" y="397" width="277" height="210" fill="#018786" fill-opacity="0.27" />
  <circle cx="387" cy="147" r="166" fill="#e0f2f1" fill-opacity="0.17" />
  <rect x="29" y="432" width="182" height="143" fill="#018786" fill-opacity="0.35" />
  <rect x="696" y="20" width="257" height="51" fill="#018786" fill-opacity="0.26" />
  <rect x="466" y="88" width="252" height="386" fill="#FF9800" fill-opacity="0.55" />
  <circle cx="201" cy="477" r="187" fill="#005b5b" fill-opacity="0.55" />
  <circle cx="769" cy="307" r="27" fill="#018786" fill-opacity="0.36" />
  <line x1="551" y1="228" x2="493" y2="260" stroke="#FF9800" stroke-width="9" stroke-opacity="0.54" />
  <line x1="771" y1="113" x2="745" y2="470" stroke="#018786" stroke-width="9" stroke-opacity="0.33" />
  <line x1="567" y1="536" x2="554" y2="216" stroke="#FF9800" stroke-width="5" stroke-opacity="0.45" />
  <circle cx="720" cy="172" r="63" fill="#fff3e0" fill-opacity="0.24" />
</svg>