<svg width="800" height="600" xmlns="http://www.w3.org/2000/svg">
  <rect width="800" height="600" fill="#f1f5f9" />
  <rect x="567" y="31" width="350" height="308" fill="#005b5b" fill-opacity="0.42" />
  <rect x="318" y="466" width="168" height="281" fill="#ffb74d" fill-opacity="0.39" />
  <rect x="647" y="124" width="83" height="220" fill="#005b5b" fill-opacity="0.12" />
  <circle cx="607" cy="82" r="54" fill="#fff3e0" fill-opacity="0.56" />
  <line x1="701" y1="283" x2="256" y2="143" stroke="#018786" stroke-width="5" stroke-opacity="0.47" />
  <line x1="207" y1="152" x2="447" y2="34" stroke="#fff3e0" stroke-width="14" stroke-opacity="0.39" />
  <circle cx="85" cy="523" r="128" fill="#018786" fill-opacity="0.33" />
  <circle cx="641" cy="68" r="133" fill="#e0f2f1" fill-opacity="0.25" />
  <line x1="552" y1="453" x2="479" y2="8" stroke="#e0f2f1" stroke-width="11" stroke-opacity="0.39" />
  <line x1="184" y1="200" x2="11" y2="50" stroke="#e0f2f1" stroke-width="5" stroke-opacity="0.53" />
  <rect x="529" y="472" width="135" height="134" fill="#018786" fill-opacity="0.48" />
  <line x1="449" y1="192" x2="495" y2="158" stroke="#fff3e0" stroke-width="7" stroke-opacity="0.40" />
  <circle cx="300" cy="480" r="170" fill="#005b5b" fill-opacity="0.60" />
  <line x1="634" y1="270" x2="304" y2="199" stroke="#e0f2f1" stroke-width="9" stroke-opacity="0.28" />
  <rect x="402" y="104" width="284" height="154" fill="#e0f2f1" fill-opacity="0.31" />
  <rect x="566" y="89" width="141" height="135" fill="#018786" fill-opacity="0.24" />
  <circle cx="563" cy="386" r="73" fill="#FF9800" fill-opacity="0.49" />
</svg>