<svg width="800" height="600" xmlns="http://www.w3.org/2000/svg">
  <rect width="800" height="600" fill="#ffffff" />
  <rect x="604" y="479" width="191" height="269" fill="#fff3e0" fill-opacity="0.44" />
  <line x1="356" y1="445" x2="749" y2="370" stroke="#FF9800" stroke-width="11" stroke-opacity="0.42" />
  <line x1="613" y1="188" x2="328" y2="22" stroke="#ffb74d" stroke-width="8" stroke-opacity="0.42" />
  <circle cx="146" cy="370" r="154" fill="#ffb74d" fill-opacity="0.10" />
  <rect x="551" y="34" width="72" height="286" fill="#e0f2f1" fill-opacity="0.26" />
  <line x1="573" y1="166" x2="321" y2="48" stroke="#FF9800" stroke-width="9" stroke-opacity="0.54" />
  <rect x="228" y="468" width="134" height="194" fill="#018786" fill-opacity="0.34" />
  <line x1="70" y1="77" x2="1" y2="345" stroke="#005b5b" stroke-width="13" stroke-opacity="0.38" />
  <rect x="759" y="424" width="337" height="232" fill="#ffb74d" fill-opacity="0.27" />
  <line x1="725" y1="242" x2="741" y2="183" stroke="#005b5b" stroke-width="7" stroke-opacity="0.11" />
  <circle cx="442" cy="164" r="159" fill="#ffb74d" fill-opacity="0.16" />
  <circle cx="679" cy="236" r="93" fill="#e0f2f1" fill-opacity="0.49" />
  <circle cx="417" cy="74" r="65" fill="#FF9800" fill-opacity="0.50" />
  <line x1="63" y1="74" x2="404" y2="350" stroke="#e0f2f1" stroke-width="3" stroke-opacity="0.21" />
  <circle cx="300" cy="150" r="80" fill="#018786" fill-opacity="0.34" />
  <rect x="500" y="186" width="89" height="86" fill="#ffb74d" fill-opacity="0.43" />
  <circle cx="706" cy="528" r="138" fill="#e0f2f1" fill-opacity="0.22" />
  <rect x="133" y="132" width="391" height="258" fill="#fff3e0" fill-opacity="0.52" />
  <line x1="602" y1="338" x2="227" y2="427" stroke="#018786" stroke-width="15" stroke-opacity="0.49" />
  <circle cx="524" cy="469" r="126" fill="#e0f2f1" fill-opacity="0.23" />
  <line x1="207" y1="174" x2="659" y2="16" stroke="#FF9800" stroke-width="4" stroke-opacity="0.44" />
  <circle cx="760" cy="142" r="41" fill="#018786" fill-opacity="0.47" />
  <line x1="211" y1="526" x2="15" y2="305" stroke="#ffb74d" stroke-width="11" stroke-opacity="0.24" />
  <line x1="597" y1="491" x2="644" y2="212" stroke="#005b5b" stroke-width="3" stroke-opacity="0.23" />
  <line x1="488" y1="594" x2="71" y2="334" stroke="#fff3e0" stroke-width="14" stroke-opacity="0.58" />
  <circle cx="711" cy="392" r="98" fill="#e0f2f1" fill-opacity="0.50" />
  <circle cx="293" cy="194" r="108" fill="#005b5b" fill-opacity="0.22" />
  <line x1="235" y1="448" x2="427" y2="183" stroke="#FF9800" stroke-width="12" stroke-opacity="0.12" />
</svg>