<svg width="800" height="600" xmlns="http://www.w3.org/2000/svg">
  <rect width="800" height="600" fill="#f1f5f9" />
  <circle cx="400" cy="150" r="60" fill="#018786" fill-opacity="0.3" />
  <rect x="350" y="230" width="100" height="60" rx="5" fill="#e0f2f1" fill-opacity="0.6" />
  <line x1="400" y1="210" x2="400" y2="230" stroke="#005b5b" stroke-width="3" />
  <line x1="350" y1="290" x2="280" y2="350" stroke="#005b5b" stroke-width="3" />
  <line x1="400" y1="290" x2="400" y2="350" stroke="#005b5b" stroke-width="3" />
  <line x1="450" y1="290" x2="520" y2="350" stroke="#005b5b" stroke-width="3" />
  <rect x="230" y="350" width="100" height="60" rx="5" fill="#fff3e0" fill-opacity="0.6" />
  <rect x="350" y="350" width="100" height="60" rx="5" fill="#fff3e0" fill-opacity="0.6" />
  <rect x="470" y="350" width="100" height="60" rx="5" fill="#fff3e0" fill-opacity="0.6" />
  <line x1="280" y1="410" x2="250" y2="470" stroke="#005b5b" stroke-width="3" />
  <line x1="280" y1="410" x2="310" y2="470" stroke="#005b5b" stroke-width="3" />
  <line x1="400" y1="410" x2="370" y2="470" stroke="#005b5b" stroke-width="3" />
  <line x1="400" y1="410" x2="430" y2="470" stroke="#005b5b" stroke-width="3" />
  <line x1="520" y1="410" x2="490" y2="470" stroke="#005b5b" stroke-width="3" />
  <line x1="520" y1="410" x2="550" y2="470" stroke="#005b5b" stroke-width="3" />
  <circle cx="250" cy="470" r="20" fill="#FF9800" fill-opacity="0.7" />
  <circle cx="310" cy="470" r="20" fill="#FF9800" fill-opacity="0.7" />
  <circle cx="370" cy="470" r="20" fill="#FF9800" fill-opacity="0.7" />
  <circle cx="430" cy="470" r="20" fill="#FF9800" fill-opacity="0.7" />
  <circle cx="490" cy="470" r="20" fill="#FF9800" fill-opacity="0.7" />
  <circle cx="550" cy="470" r="20" fill="#FF9800" fill-opacity="0.7" />
  <circle cx="400" cy="150" r="30" fill="#018786" fill-opacity="0.6" />
  <circle cx="400" cy="150" r="15" fill="#FF9800" fill-opacity="0.9" />
</svg>
