<svg width="800" height="600" xmlns="http://www.w3.org/2000/svg">
  <rect width="800" height="600" fill="#f8fafc" />
  <circle cx="625" cy="240" r="125" fill="#018786" fill-opacity="0.41" />
  <circle cx="326" cy="454" r="50" fill="#fff3e0" fill-opacity="0.45" />
  <rect x="598" y="195" width="65" height="88" fill="#fff3e0" fill-opacity="0.57" />
  <rect x="497" y="539" width="181" height="225" fill="#018786" fill-opacity="0.24" />
  <line x1="552" y1="565" x2="245" y2="159" stroke="#005b5b" stroke-width="7" stroke-opacity="0.50" />
  <line x1="85" y1="56" x2="713" y2="21" stroke="#e0f2f1" stroke-width="9" stroke-opacity="0.42" />
  <rect x="766" y="428" width="118" height="199" fill="#e0f2f1" fill-opacity="0.32" />
  <circle cx="16" cy="155" r="196" fill="#FF9800" fill-opacity="0.58" />
  <rect x="510" y="161" width="61" height="219" fill="#FF9800" fill-opacity="0.12" />
  <circle cx="5" cy="416" r="102" fill="#fff3e0" fill-opacity="0.26" />
  <circle cx="204" cy="361" r="180" fill="#018786" fill-opacity="0.39" />
  <rect x="470" y="187" width="233" height="75" fill="#fff3e0" fill-opacity="0.40" />
  <rect x="199" y="556" width="342" height="139" fill="#fff3e0" fill-opacity="0.42" />
  <line x1="649" y1="476" x2="267" y2="136" stroke="#fff3e0" stroke-width="12" stroke-opacity="0.57" />
  <circle cx="82" cy="64" r="185" fill="#FF9800" fill-opacity="0.20" />
  <circle cx="745" cy="390" r="89" fill="#005b5b" fill-opacity="0.24" />
  <circle cx="707" cy="353" r="100" fill="#e0f2f1" fill-opacity="0.59" />
  <rect x="515" y="7" width="327" height="50" fill="#fff3e0" fill-opacity="0.48" />
</svg>