<svg width="800" height="600" xmlns="http://www.w3.org/2000/svg">
  <rect width="800" height="600" fill="#f1f5f9" />
  <rect x="150" y="200" width="200" height="200" fill="#fff3e0" fill-opacity="0.6" />
  <line x1="170" y1="230" x2="320" y2="230" stroke="#005b5b" stroke-width="3" />
  <line x1="170" y1="260" x2="310" y2="260" stroke="#005b5b" stroke-width="3" />
  <line x1="170" y1="290" x2="330" y2="290" stroke="#005b5b" stroke-width="3" />
  <line x1="170" y1="320" x2="300" y2="320" stroke="#005b5b" stroke-width="3" />
  <line x1="170" y1="350" x2="320" y2="350" stroke="#005b5b" stroke-width="3" />
  <line x1="170" y1="380" x2="310" y2="380" stroke="#005b5b" stroke-width="3" />
  <path d="M 370 300 L 420 250 L 420 350 Z" fill="#FF9800" fill-opacity="0.7" />
  <rect x="450" y="200" width="200" height="200" fill="#e0f2f1" fill-opacity="0.6" />
  <line x1="470" y1="230" x2="620" y2="230" stroke="#018786" stroke-width="3" />
  <line x1="470" y1="260" x2="610" y2="260" stroke="#018786" stroke-width="3" />
  <line x1="470" y1="290" x2="630" y2="290" stroke="#018786" stroke-width="3" />
  <line x1="470" y1="320" x2="600" y2="320" stroke="#018786" stroke-width="3" />
  <circle cx="250" cy="480" r="40" fill="#ffb74d" fill-opacity="0.5" />
  <circle cx="550" cy="480" r="40" fill="#018786" fill-opacity="0.7" />
  <path d="M 530 480 L 543 495 L 570 465" stroke="#ffffff" stroke-width="5" fill="none" />
  <rect x="100" y="100" width="600" height="50" fill="#005b5b" fill-opacity="0.15" />
  <circle cx="400" cy="125" r="20" fill="#018786" fill-opacity="0.6" />
  <path d="M 385 125 L 395 135 L 415 115" stroke="#ffffff" stroke-width="3" fill="none" />
</svg>
