<svg width="800" height="600" xmlns="http://www.w3.org/2000/svg">
  <rect width="800" height="600" fill="#f8fafc" />
  <circle cx="432" cy="353" r="71" fill="#fff3e0" fill-opacity="0.27" />
  <rect x="445" y="15" width="53" height="330" fill="#ffb74d" fill-opacity="0.17" />
  <circle cx="296" cy="48" r="88" fill="#018786" fill-opacity="0.56" />
  <line x1="273" y1="239" x2="735" y2="186" stroke="#ffb74d" stroke-width="11" stroke-opacity="0.36" />
  <line x1="530" y1="464" x2="406" y2="311" stroke="#FF9800" stroke-width="4" stroke-opacity="0.12" />
  <line x1="179" y1="346" x2="225" y2="445" stroke="#018786" stroke-width="2" stroke-opacity="0.31" />
  <line x1="790" y1="298" x2="606" y2="452" stroke="#018786" stroke-width="4" stroke-opacity="0.25" />
  <line x1="562" y1="569" x2="317" y2="533" stroke="#018786" stroke-width="3" stroke-opacity="0.54" />
  <line x1="359" y1="558" x2="384" y2="126" stroke="#ffb74d" stroke-width="5" stroke-opacity="0.54" />
  <line x1="154" y1="228" x2="417" y2="406" stroke="#e0f2f1" stroke-width="9" stroke-opacity="0.32" />
  <rect x="83" y="104" width="351" height="197" fill="#018786" fill-opacity="0.23" />
  <line x1="342" y1="129" x2="715" y2="306" stroke="#fff3e0" stroke-width="12" stroke-opacity="0.39" />
  <line x1="586" y1="341" x2="621" y2="371" stroke="#fff3e0" stroke-width="2" stroke-opacity="0.41" />
  <line x1="544" y1="90" x2="527" y2="19" stroke="#005b5b" stroke-width="15" stroke-opacity="0.39" />
  <rect x="19" y="73" width="199" height="51" fill="#018786" fill-opacity="0.20" />
  <line x1="58" y1="574" x2="334" y2="236" stroke="#005b5b" stroke-width="15" stroke-opacity="0.32" />
  <circle cx="428" cy="118" r="130" fill="#018786" fill-opacity="0.54" />
  <rect x="734" y="262" width="264" height="168" fill="#ffb74d" fill-opacity="0.21" />
  <circle cx="171" cy="399" r="188" fill="#e0f2f1" fill-opacity="0.58" />
  <circle cx="369" cy="455" r="160" fill="#FF9800" fill-opacity="0.49" />
  <circle cx="382" cy="577" r="32" fill="#e0f2f1" fill-opacity="0.43" />
  <rect x="768" y="528" width="96" height="251" fill="#FF9800" fill-opacity="0.57" />
  <line x1="695" y1="386" x2="649" y2="463" stroke="#005b5b" stroke-width="15" stroke-opacity="0.20" />
  <rect x="640" y="351" width="278" height="168" fill="#FF9800" fill-opacity="0.42" />
  <circle cx="644" cy="344" r="171" fill="#e0f2f1" fill-opacity="0.39" />
  <circle cx="744" cy="518" r="71" fill="#fff3e0" fill-opacity="0.32" />
  <line x1="574" y1="113" x2="561" y2="55" stroke="#fff3e0" stroke-width="9" stroke-opacity="0.55" />
</svg>