<svg width="800" height="600" xmlns="http://www.w3.org/2000/svg">
  <rect width="800" height="600" fill="#f1f5f9" />
  <circle cx="400" cy="300" r="180" fill="#018786" fill-opacity="0.15" />
  <circle cx="400" cy="300" r="140" fill="#018786" fill-opacity="0.25" />
  <circle cx="400" cy="300" r="100" fill="#018786" fill-opacity="0.35" />
  <rect x="340" y="150" width="120" height="40" fill="#FF9800" fill-opacity="0.7" />
  <rect x="340" y="210" width="120" height="40" fill="#ffb74d" fill-opacity="0.6" />
  <rect x="340" y="270" width="120" height="40" fill="#005b5b" fill-opacity="0.5" />
  <line x1="250" y1="170" x2="300" y2="170" stroke="#FF9800" stroke-width="3" />
  <line x1="500" y1="170" x2="550" y2="170" stroke="#FF9800" stroke-width="3" />
  <line x1="250" y1="230" x2="300" y2="230" stroke="#ffb74d" stroke-width="3" />
  <line x1="500" y1="230" x2="550" y2="230" stroke="#ffb74d" stroke-width="3" />
  <line x1="250" y1="290" x2="300" y2="290" stroke="#005b5b" stroke-width="3" />
  <line x1="500" y1="290" x2="550" y2="290" stroke="#005b5b" stroke-width="3" />
  <circle cx="400" cy="380" r="25" fill="#018786" fill-opacity="0.7" />
  <path d="M 375 380 L 400 405 L 425 355" stroke="#ffffff" stroke-width="4" fill="none" />
  <rect x="150" y="450" width="500" height="80" fill="#e0f2f1" fill-opacity="0.3" />
  <line x1="200" y1="490" x2="250" y2="490" stroke="#018786" stroke-width="6" />
  <line x1="280" y1="490" x2="380" y2="490" stroke="#018786" stroke-width="6" />
  <line x1="410" y1="490" x2="460" y2="490" stroke="#018786" stroke-width="6" />
  <line x1="490" y1="490" x2="600" y2="490" stroke="#018786" stroke-width="6" />
</svg>
