<svg width="800" height="600" xmlns="http://www.w3.org/2000/svg">
  <rect width="800" height="600" fill="#f1f5f9" />
  <line x1="508" y1="306" x2="390" y2="130" stroke="#FF9800" stroke-width="15" stroke-opacity="0.59" />
  <line x1="10" y1="80" x2="730" y2="461" stroke="#018786" stroke-width="2" stroke-opacity="0.36" />
  <rect x="726" y="198" width="173" height="384" fill="#e0f2f1" fill-opacity="0.57" />
  <line x1="519" y1="118" x2="793" y2="564" stroke="#ffb74d" stroke-width="7" stroke-opacity="0.26" />
  <rect x="105" y="563" width="399" height="184" fill="#005b5b" fill-opacity="0.32" />
  <line x1="70" y1="191" x2="211" y2="309" stroke="#e0f2f1" stroke-width="5" stroke-opacity="0.19" />
  <circle cx="455" cy="47" r="133" fill="#005b5b" fill-opacity="0.52" />
  <rect x="788" y="303" width="337" height="99" fill="#005b5b" fill-opacity="0.49" />
  <circle cx="588" cy="108" r="171" fill="#005b5b" fill-opacity="0.39" />
  <line x1="148" y1="366" x2="100" y2="224" stroke="#ffb74d" stroke-width="10" stroke-opacity="0.16" />
  <rect x="696" y="343" width="124" height="263" fill="#005b5b" fill-opacity="0.27" />
  <line x1="737" y1="136" x2="319" y2="462" stroke="#ffb74d" stroke-width="4" stroke-opacity="0.46" />
  <circle cx="557" cy="387" r="38" fill="#ffb74d" fill-opacity="0.29" />
  <rect x="396" y="413" width="58" height="93" fill="#fff3e0" fill-opacity="0.33" />
  <circle cx="796" cy="442" r="69" fill="#005b5b" fill-opacity="0.33" />
  <rect x="586" y="150" width="378" height="227" fill="#FF9800" fill-opacity="0.33" />
  <rect x="154" y="595" width="64" height="87" fill="#018786" fill-opacity="0.24" />
  <rect x="254" y="207" width="150" height="218" fill="#e0f2f1" fill-opacity="0.13" />
  <line x1="590" y1="355" x2="676" y2="460" stroke="#005b5b" stroke-width="11" stroke-opacity="0.53" />
  <rect x="566" y="419" width="145" height="358" fill="#e0f2f1" fill-opacity="0.16" />
</svg>