<svg width="800" height="600" xmlns="http://www.w3.org/2000/svg">
  <rect width="800" height="600" fill="#f1f5f9" />
  <rect x="200" y="150" width="400" height="300" fill="#e0f2f1" fill-opacity="0.3" />
  <rect x="250" y="200" width="300" height="200" fill="#fff3e0" fill-opacity="0.4" />
  <rect x="300" y="250" width="200" height="100" fill="#ffffff" fill-opacity="0.8" />
  <circle cx="400" cy="300" r="50" fill="#018786" fill-opacity="0.7" />
  <circle cx="400" cy="300" r="30" fill="#FF9800" fill-opacity="0.8" />
  <line x1="150" y1="300" x2="280" y2="300" stroke="#005b5b" stroke-width="3" />
  <line x1="520" y1="300" x2="650" y2="300" stroke="#005b5b" stroke-width="3" />
  <line x1="400" y1="100" x2="400" y2="230" stroke="#005b5b" stroke-width="3" />
  <line x1="400" y1="370" x2="400" y2="500" stroke="#005b5b" stroke-width="3" />
  <circle cx="150" cy="300" r="20" fill="#ffb74d" fill-opacity="0.7" />
  <circle cx="650" cy="300" r="20" fill="#ffb74d" fill-opacity="0.7" />
  <circle cx="400" cy="100" r="20" fill="#ffb74d" fill-opacity="0.7" />
  <circle cx="400" cy="500" r="20" fill="#ffb74d" fill-opacity="0.7" />
  <path d="M 150 150 L 200 200" stroke="#018786" stroke-width="2" stroke-dasharray="3,3" />
  <path d="M 650 150 L 600 200" stroke="#018786" stroke-width="2" stroke-dasharray="3,3" />
  <path d="M 150 450 L 200 400" stroke="#018786" stroke-width="2" stroke-dasharray="3,3" />
  <path d="M 650 450 L 600 400" stroke="#018786" stroke-width="2" stroke-dasharray="3,3" />
  <rect x="350" y="280" width="100" height="8" fill="#005b5b" fill-opacity="0.5" />
  <rect x="360" y="300" width="80" height="8" fill="#005b5b" fill-opacity="0.5" />
  <rect x="370" y="320" width="60" height="8" fill="#005b5b" fill-opacity="0.5" />
</svg>
