<svg width="800" height="600" xmlns="http://www.w3.org/2000/svg">
  <rect width="800" height="600" fill="#ffffff" />
  <rect x="100" y="100" width="280" height="400" fill="#e0f2f1" fill-opacity="0.4" />
  <rect x="420" y="100" width="280" height="400" fill="#fff3e0" fill-opacity="0.4" />
  <line x1="100" y1="150" x2="350" y2="150" stroke="#005b5b" stroke-width="3" />
  <line x1="100" y1="200" x2="330" y2="200" stroke="#005b5b" stroke-width="3" />
  <line x1="100" y1="250" x2="360" y2="250" stroke="#005b5b" stroke-width="3" />
  <line x1="100" y1="300" x2="320" y2="300" stroke="#005b5b" stroke-width="3" />
  <line x1="420" y1="150" x2="670" y2="150" stroke="#FF9800" stroke-width="3" />
  <line x1="420" y1="200" x2="650" y2="200" stroke="#FF9800" stroke-width="3" />
  <line x1="420" y1="250" x2="680" y2="250" stroke="#FF9800" stroke-width="3" />
  <line x1="420" y1="300" x2="640" y2="300" stroke="#FF9800" stroke-width="3" />
  <circle cx="140" cy="380" r="30" fill="#ffb74d" fill-opacity="0.7" />
  <circle cx="240" cy="380" r="30" fill="#ffb74d" fill-opacity="0.7" />
  <circle cx="340" cy="380" r="30" fill="#ffb74d" fill-opacity="0.7" />
  <circle cx="540" cy="380" r="40" fill="#018786" fill-opacity="0.8" />
  <path d="M 520 380 L 533 395 L 560 365" stroke="#ffffff" stroke-width="5" fill="none" />
  <path d="M 380 200 L 400 220 L 420 200" fill="none" stroke="#018786" stroke-width="4" />
  <rect x="200" y="450" width="400" height="60" fill="#005b5b" fill-opacity="0.2" />
  <circle cx="300" cy="480" r="15" fill="#018786" fill-opacity="0.9" />
  <circle cx="400" cy="480" r="15" fill="#018786" fill-opacity="0.9" />
  <circle cx="500" cy="480" r="15" fill="#018786" fill-opacity="0.9" />
</svg>
