<svg width="800" height="600" xmlns="http://www.w3.org/2000/svg">
  <rect width="800" height="600" fill="#f8fafc" />
  <circle cx="396" cy="137" r="97" fill="#018786" fill-opacity="0.14" />
  <rect x="212" y="285" width="288" height="246" fill="#ffb74d" fill-opacity="0.46" />
  <circle cx="556" cy="422" r="176" fill="#FF9800" fill-opacity="0.53" />
  <line x1="485" y1="168" x2="647" y2="384" stroke="#ffb74d" stroke-width="14" stroke-opacity="0.20" />
  <rect x="12" y="355" width="71" height="178" fill="#fff3e0" fill-opacity="0.42" />
  <rect x="465" y="225" width="293" height="63" fill="#018786" fill-opacity="0.60" />
  <line x1="123" y1="56" x2="567" y2="330" stroke="#005b5b" stroke-width="15" stroke-opacity="0.47" />
  <circle cx="25" cy="466" r="95" fill="#ffb74d" fill-opacity="0.45" />
  <rect x="27" y="118" width="97" height="150" fill="#018786" fill-opacity="0.36" />
  <rect x="74" y="290" width="311" height="91" fill="#e0f2f1" fill-opacity="0.51" />
  <circle cx="760" cy="593" r="100" fill="#005b5b" fill-opacity="0.47" />
  <line x1="427" y1="284" x2="244" y2="21" stroke="#005b5b" stroke-width="13" stroke-opacity="0.12" />
  <rect x="152" y="561" width="102" height="120" fill="#e0f2f1" fill-opacity="0.34" />
  <rect x="791" y="37" width="69" height="393" fill="#ffb74d" fill-opacity="0.15" />
  <line x1="121" y1="181" x2="502" y2="386" stroke="#018786" stroke-width="8" stroke-opacity="0.34" />
  <circle cx="315" cy="307" r="120" fill="#005b5b" fill-opacity="0.46" />
  <line x1="244" y1="75" x2="153" y2="203" stroke="#ffb74d" stroke-width="11" stroke-opacity="0.30" />
  <line x1="226" y1="528" x2="9" y2="342" stroke="#FF9800" stroke-width="11" stroke-opacity="0.15" />
  <rect x="476" y="319" width="325" height="156" fill="#018786" fill-opacity="0.57" />
  <rect x="799" y="527" width="162" height="61" fill="#FF9800" fill-opacity="0.33" />
  <circle cx="47" cy="537" r="163" fill="#FF9800" fill-opacity="0.25" />
  <circle cx="682" cy="43" r="94" fill="#018786" fill-opacity="0.45" />
  <circle cx="766" cy="527" r="169" fill="#fff3e0" fill-opacity="0.29" />
  <rect x="580" y="253" width="215" height="256" fill="#ffb74d" fill-opacity="0.11" />
  <rect x="727" y="45" width="208" height="216" fill="#005b5b" fill-opacity="0.42" />
  <rect x="698" y="348" width="64" height="127" fill="#ffb74d" fill-opacity="0.40" />
  <line x1="264" y1="513" x2="463" y2="536" stroke="#e0f2f1" stroke-width="13" stroke-opacity="0.13" />
  <rect x="743" y="175" width="296" height="333" fill="#FF9800" fill-opacity="0.43" />
  <circle cx="529" cy="174" r="36" fill="#FF9800" fill-opacity="0.57" />
</svg>