<svg width="800" height="600" xmlns="http://www.w3.org/2000/svg">
  <rect width="800" height="600" fill="#f8fafc" />
  <line x1="21" y1="136" x2="5" y2="531" stroke="#FF9800" stroke-width="12" stroke-opacity="0.32" />
  <circle cx="33" cy="381" r="49" fill="#018786" fill-opacity="0.54" />
  <circle cx="586" cy="147" r="77" fill="#FF9800" fill-opacity="0.12" />
  <line x1="623" y1="257" x2="551" y2="94" stroke="#fff3e0" stroke-width="11" stroke-opacity="0.31" />
  <circle cx="631" cy="486" r="89" fill="#018786" fill-opacity="0.24" />
  <line x1="548" y1="93" x2="185" y2="360" stroke="#fff3e0" stroke-width="15" stroke-opacity="0.18" />
  <line x1="407" y1="419" x2="296" y2="12" stroke="#e0f2f1" stroke-width="6" stroke-opacity="0.24" />
  <rect x="287" y="258" width="343" height="400" fill="#FF9800" fill-opacity="0.11" />
  <rect x="318" y="462" width="361" height="381" fill="#018786" fill-opacity="0.27" />
  <circle cx="762" cy="21" r="170" fill="#FF9800" fill-opacity="0.29" />
  <circle cx="188" cy="420" r="28" fill="#ffb74d" fill-opacity="0.40" />
  <circle cx="55" cy="100" r="186" fill="#018786" fill-opacity="0.17" />
  <circle cx="786" cy="13" r="58" fill="#ffb74d" fill-opacity="0.38" />
  <circle cx="167" cy="302" r="96" fill="#fff3e0" fill-opacity="0.17" />
  <line x1="361" y1="418" x2="642" y2="572" stroke="#018786" stroke-width="10" stroke-opacity="0.50" />
  <circle cx="404" cy="530" r="53" fill="#ffb74d" fill-opacity="0.48" />
  <circle cx="30" cy="517" r="44" fill="#005b5b" fill-opacity="0.10" />
  <circle cx="77" cy="169" r="72" fill="#ffb74d" fill-opacity="0.16" />
  <circle cx="274" cy="428" r="165" fill="#e0f2f1" fill-opacity="0.21" />
  <rect x="739" y="540" width="143" height="144" fill="#e0f2f1" fill-opacity="0.30" />
  <circle cx="542" cy="366" r="151" fill="#ffb74d" fill-opacity="0.47" />
  <line x1="416" y1="20" x2="224" y2="542" stroke="#fff3e0" stroke-width="14" stroke-opacity="0.50" />
  <rect x="503" y="411" width="204" height="185" fill="#018786" fill-opacity="0.14" />
  <rect x="501" y="502" width="151" height="145" fill="#fff3e0" fill-opacity="0.32" />
</svg>