<svg width="800" height="600" xmlns="http://www.w3.org/2000/svg">
  <rect width="800" height="600" fill="#ffffff" />
  <line x1="234" y1="246" x2="58" y2="584" stroke="#FF9800" stroke-width="11" stroke-opacity="0.51" />
  <circle cx="21" cy="123" r="154" fill="#018786" fill-opacity="0.54" />
  <line x1="615" y1="286" x2="80" y2="261" stroke="#005b5b" stroke-width="7" stroke-opacity="0.40" />
  <line x1="319" y1="463" x2="594" y2="162" stroke="#e0f2f1" stroke-width="12" stroke-opacity="0.57" />
  <rect x="192" y="536" width="329" height="189" fill="#FF9800" fill-opacity="0.20" />
  <circle cx="63" cy="539" r="85" fill="#e0f2f1" fill-opacity="0.42" />
  <circle cx="361" cy="122" r="145" fill="#018786" fill-opacity="0.57" />
  <line x1="118" y1="343" x2="631" y2="597" stroke="#fff3e0" stroke-width="8" stroke-opacity="0.56" />
  <circle cx="4" cy="461" r="167" fill="#005b5b" fill-opacity="0.38" />
  <line x1="266" y1="305" x2="530" y2="402" stroke="#018786" stroke-width="7" stroke-opacity="0.56" />
  <line x1="26" y1="16" x2="389" y2="400" stroke="#fff3e0" stroke-width="10" stroke-opacity="0.11" />
  <rect x="105" y="543" width="169" height="100" fill="#fff3e0" fill-opacity="0.42" />
  <circle cx="687" cy="15" r="150" fill="#ffb74d" fill-opacity="0.18" />
  <rect x="774" y="522" width="388" height="175" fill="#fff3e0" fill-opacity="0.28" />
  <line x1="526" y1="388" x2="22" y2="253" stroke="#e0f2f1" stroke-width="8" stroke-opacity="0.22" />
  <rect x="23" y="125" width="160" height="73" fill="#FF9800" fill-opacity="0.25" />
  <rect x="95" y="586" width="167" height="308" fill="#FF9800" fill-opacity="0.42" />
  <line x1="57" y1="136" x2="567" y2="58" stroke="#e0f2f1" stroke-width="8" stroke-opacity="0.30" />
  <circle cx="174" cy="16" r="80" fill="#005b5b" fill-opacity="0.37" />
  <rect x="388" y="495" width="102" height="222" fill="#fff3e0" fill-opacity="0.32" />
  <line x1="477" y1="171" x2="627" y2="340" stroke="#FF9800" stroke-width="11" stroke-opacity="0.34" />
  <rect x="223" y="302" width="50" height="151" fill="#ffb74d" fill-opacity="0.40" />
  <rect x="730" y="38" width="365" height="134" fill="#018786" fill-opacity="0.49" />
  <rect x="329" y="504" width="127" height="77" fill="#ffb74d" fill-opacity="0.19" />
</svg>