<svg width="800" height="600" xmlns="http://www.w3.org/2000/svg">
  <rect width="800" height="600" fill="#ffffff" />
  <circle cx="444" cy="22" r="78" fill="#ffb74d" fill-opacity="0.19" />
  <circle cx="137" cy="493" r="39" fill="#FF9800" fill-opacity="0.38" />
  <circle cx="572" cy="469" r="131" fill="#005b5b" fill-opacity="0.55" />
  <rect x="490" y="184" width="127" height="377" fill="#fff3e0" fill-opacity="0.42" />
  <circle cx="37" cy="540" r="169" fill="#ffb74d" fill-opacity="0.48" />
  <rect x="352" y="310" width="311" height="121" fill="#018786" fill-opacity="0.43" />
  <rect x="141" y="30" width="90" height="344" fill="#ffb74d" fill-opacity="0.14" />
  <line x1="200" y1="3" x2="434" y2="387" stroke="#FF9800" stroke-width="8" stroke-opacity="0.19" />
  <line x1="654" y1="135" x2="441" y2="385" stroke="#005b5b" stroke-width="15" stroke-opacity="0.49" />
  <line x1="4" y1="214" x2="28" y2="221" stroke="#e0f2f1" stroke-width="13" stroke-opacity="0.46" />
  <line x1="411" y1="40" x2="619" y2="505" stroke="#005b5b" stroke-width="4" stroke-opacity="0.29" />
  <line x1="49" y1="584" x2="82" y2="46" stroke="#FF9800" stroke-width="6" stroke-opacity="0.36" />
  <circle cx="63" cy="419" r="49" fill="#FF9800" fill-opacity="0.56" />
  <rect x="679" y="366" width="88" height="358" fill="#fff3e0" fill-opacity="0.37" />
  <circle cx="522" cy="505" r="138" fill="#ffb74d" fill-opacity="0.40" />
  <rect x="471" y="355" width="163" height="209" fill="#005b5b" fill-opacity="0.15" />
  <line x1="83" y1="185" x2="98" y2="4" stroke="#005b5b" stroke-width="11" stroke-opacity="0.54" />
  <line x1="91" y1="115" x2="148" y2="297" stroke="#fff3e0" stroke-width="3" stroke-opacity="0.56" />
  <circle cx="431" cy="565" r="75" fill="#e0f2f1" fill-opacity="0.57" />
  <circle cx="320" cy="225" r="131" fill="#005b5b" fill-opacity="0.52" />
  <rect x="375" y="347" width="128" height="207" fill="#ffb74d" fill-opacity="0.20" />
  <rect x="17" y="492" width="362" height="290" fill="#FF9800" fill-opacity="0.32" />
  <rect x="566" y="121" width="171" height="394" fill="#FF9800" fill-opacity="0.36" />
  <rect x="297" y="152" width="151" height="175" fill="#e0f2f1" fill-opacity="0.12" />
  <line x1="95" y1="340" x2="617" y2="149" stroke="#e0f2f1" stroke-width="5" stroke-opacity="0.18" />
  <rect x="723" y="52" width="70" height="336" fill="#ffb74d" fill-opacity="0.39" />
  <rect x="175" y="469" width="271" height="366" fill="#005b5b" fill-opacity="0.32" />
  <rect x="311" y="256" width="269" height="386" fill="#005b5b" fill-opacity="0.21" />
</svg>