<svg width="800" height="600" xmlns="http://www.w3.org/2000/svg">
  <rect width="800" height="600" fill="#ffffff" />
  <line x1="515" y1="342" x2="407" y2="160" stroke="#018786" stroke-width="7" stroke-opacity="0.28" />
  <circle cx="131" cy="472" r="68" fill="#fff3e0" fill-opacity="0.33" />
  <line x1="59" y1="138" x2="719" y2="325" stroke="#fff3e0" stroke-width="3" stroke-opacity="0.38" />
  <circle cx="799" cy="74" r="152" fill="#fff3e0" fill-opacity="0.24" />
  <circle cx="776" cy="250" r="196" fill="#FF9800" fill-opacity="0.54" />
  <circle cx="404" cy="19" r="157" fill="#e0f2f1" fill-opacity="0.17" />
  <circle cx="323" cy="298" r="150" fill="#e0f2f1" fill-opacity="0.16" />
  <circle cx="32" cy="406" r="158" fill="#e0f2f1" fill-opacity="0.13" />
  <line x1="240" y1="461" x2="566" y2="223" stroke="#018786" stroke-width="14" stroke-opacity="0.57" />
  <line x1="634" y1="254" x2="10" y2="46" stroke="#fff3e0" stroke-width="7" stroke-opacity="0.27" />
  <line x1="46" y1="64" x2="88" y2="95" stroke="#e0f2f1" stroke-width="5" stroke-opacity="0.36" />
  <rect x="200" y="44" width="391" height="391" fill="#018786" fill-opacity="0.29" />
  <line x1="361" y1="413" x2="151" y2="146" stroke="#018786" stroke-width="10" stroke-opacity="0.30" />
  <line x1="760" y1="228" x2="633" y2="38" stroke="#FF9800" stroke-width="4" stroke-opacity="0.56" />
  <line x1="110" y1="433" x2="517" y2="352" stroke="#FF9800" stroke-width="9" stroke-opacity="0.19" />
  <line x1="9" y1="76" x2="781" y2="452" stroke="#FF9800" stroke-width="4" stroke-opacity="0.35" />
  <line x1="640" y1="264" x2="3" y2="251" stroke="#e0f2f1" stroke-width="5" stroke-opacity="0.24" />
  <circle cx="209" cy="585" r="187" fill="#005b5b" fill-opacity="0.30" />
  <circle cx="581" cy="5" r="150" fill="#005b5b" fill-opacity="0.47" />
</svg>