<svg width="800" height="600" xmlns="http://www.w3.org/2000/svg">
  <rect width="800" height="600" fill="#f8fafc" />
  <rect x="141" y="74" width="69" height="326" fill="#e0f2f1" fill-opacity="0.32" />
  <line x1="154" y1="483" x2="527" y2="492" stroke="#018786" stroke-width="3" stroke-opacity="0.29" />
  <line x1="162" y1="571" x2="34" y2="361" stroke="#005b5b" stroke-width="15" stroke-opacity="0.47" />
  <rect x="551" y="495" width="254" height="273" fill="#005b5b" fill-opacity="0.55" />
  <circle cx="633" cy="313" r="154" fill="#fff3e0" fill-opacity="0.55" />
  <line x1="580" y1="374" x2="34" y2="537" stroke="#e0f2f1" stroke-width="11" stroke-opacity="0.46" />
  <rect x="527" y="192" width="375" height="322" fill="#FF9800" fill-opacity="0.52" />
  <rect x="81" y="352" width="171" height="98" fill="#005b5b" fill-opacity="0.22" />
  <rect x="9" y="354" width="84" height="199" fill="#018786" fill-opacity="0.57" />
  <rect x="291" y="250" width="68" height="142" fill="#ffb74d" fill-opacity="0.18" />
  <circle cx="797" cy="467" r="195" fill="#018786" fill-opacity="0.43" />
  <circle cx="756" cy="168" r="155" fill="#FF9800" fill-opacity="0.44" />
  <rect x="557" y="285" width="273" height="55" fill="#e0f2f1" fill-opacity="0.42" />
  <line x1="190" y1="245" x2="773" y2="4" stroke="#018786" stroke-width="3" stroke-opacity="0.12" />
  <rect x="27" y="275" width="153" height="100" fill="#fff3e0" fill-opacity="0.11" />
  <rect x="647" y="105" width="206" height="105" fill="#e0f2f1" fill-opacity="0.55" />
  <circle cx="235" cy="55" r="141" fill="#ffb74d" fill-opacity="0.49" />
  <rect x="727" y="471" width="374" height="181" fill="#ffb74d" fill-opacity="0.40" />
  <line x1="94" y1="31" x2="780" y2="576" stroke="#005b5b" stroke-width="6" stroke-opacity="0.38" />
  <rect x="10" y="575" width="320" height="399" fill="#ffb74d" fill-opacity="0.12" />
  <rect x="781" y="133" width="358" height="184" fill="#ffb74d" fill-opacity="0.45" />
  <rect x="449" y="189" width="319" height="154" fill="#005b5b" fill-opacity="0.53" />
  <circle cx="344" cy="166" r="49" fill="#005b5b" fill-opacity="0.17" />
  <rect x="85" y="119" width="222" height="123" fill="#005b5b" fill-opacity="0.31" />
  <rect x="654" y="439" width="372" height="111" fill="#fff3e0" fill-opacity="0.48" />
  <rect x="648" y="421" width="305" height="388" fill="#e0f2f1" fill-opacity="0.29" />
  <circle cx="211" cy="432" r="128" fill="#e0f2f1" fill-opacity="0.42" />
  <rect x="414" y="274" width="220" height="143" fill="#e0f2f1" fill-opacity="0.35" />
</svg>