<svg xmlns="http://www.w3.org/2000/svg" width="800" height="600"><defs><linearGradient id="a" x1="0%" x2="100%" y1="0%" y2="0%"><stop offset="0%" style="stop-color:#667eea;stop-opacity:1"/><stop offset="100%" style="stop-color:#764ba2;stop-opacity:1"/></linearGradient><linearGradient id="b" x1="0%" x2="100%" y1="0%" y2="0%"><stop offset="0%" style="stop-color:#ff6b6b;stop-opacity:1"/><stop offset="100%" style="stop-color:#ee5a24;stop-opacity:1"/></linearGradient><linearGradient id="c" x1="0%" x2="100%" y1="0%" y2="0%"><stop offset="0%" style="stop-color:#4ecdc4;stop-opacity:1"/><stop offset="100%" style="stop-color:#44bd32;stop-opacity:1"/></linearGradient></defs><path fill="#f8f9fa" d="M0 0h800v600H0z"/><text x="400" y="40" fill="#2c3e50" font-family="Arial, sans-serif" font-size="24" font-weight="bold" text-anchor="middle">Clean Architecture en Android - Capas y Flujo de Datos</text><rect width="700" height="120" x="50" y="80" fill="url(#a)" rx="10"/><text x="70" y="110" fill="#fff" font-family="Arial, sans-serif" font-size="18" font-weight="bold">📱 UI Layer (Presentation)</text><rect width="120" height="50" x="80" y="130" fill="rgba(255,255,255,0.2)" rx="5"/><text x="140" y="150" fill="#fff" font-family="Arial, sans-serif" font-size="12" font-weight="bold" text-anchor="middle">Activities</text><text x="140" y="165" fill="#fff" font-family="Arial, sans-serif" font-size="12" text-anchor="middle">Fragments</text><rect width="120" height="50" x="220" y="130" fill="rgba(255,255,255,0.2)" rx="5"/><text x="280" y="150" fill="#fff" font-family="Arial, sans-serif" font-size="12" font-weight="bold" text-anchor="middle">Compose UI</text><text x="280" y="165" fill="#fff" font-family="Arial, sans-serif" font-size="12" text-anchor="middle">@Composable</text><rect width="120" height="50" x="360" y="130" fill="rgba(255,255,255,0.2)" rx="5"/><text x="420" y="150" fill="#fff" font-family="Arial, sans-serif" font-size="12" font-weight="bold" text-anchor="middle">ViewModels</text><text x="420" y="165" fill="#fff" font-family="Arial, sans-serif" font-size="12" text-anchor="middle">State Management</text><rect width="120" height="50" x="500" y="130" fill="rgba(255,255,255,0.2)" rx="5"/><text x="560" y="150" fill="#fff" font-family="Arial, sans-serif" font-size="12" font-weight="bold" text-anchor="middle">UI Models</text><text x="560" y="165" fill="#fff" font-family="Arial, sans-serif" font-size="12" text-anchor="middle">UI State</text><path fill="none" stroke="#2c3e50" stroke-width="2" d="M400 200v30l-10-10m10 10 10-10"/><text x="420" y="218" fill="#2c3e50" font-family="Arial, sans-serif" font-size="12">Calls Use Cases</text><rect width="700" height="120" x="50" y="240" fill="url(#b)" rx="10"/><text x="70" y="270" fill="#fff" font-family="Arial, sans-serif" font-size="18" font-weight="bold">🧠 Domain Layer (Business Logic)</text><rect width="120" height="50" x="80" y="290" fill="rgba(255,255,255,0.2)" rx="5"/><text x="140" y="310" fill="#fff" font-family="Arial, sans-serif" font-size="12" font-weight="bold" text-anchor="middle">Entities</text><text x="140" y="325" fill="#fff" font-family="Arial, sans-serif" font-size="12" text-anchor="middle">Domain Models</text><rect width="120" height="50" x="220" y="290" fill="rgba(255,255,255,0.2)" rx="5"/><text x="280" y="310" fill="#fff" font-family="Arial, sans-serif" font-size="12" font-weight="bold" text-anchor="middle">Use Cases</text><text x="280" y="325" fill="#fff" font-family="Arial, sans-serif" font-size="12" text-anchor="middle">Interactors</text><rect width="120" height="50" x="360" y="290" fill="rgba(255,255,255,0.2)" rx="5"/><text x="420" y="310" fill="#fff" font-family="Arial, sans-serif" font-size="12" font-weight="bold" text-anchor="middle">Repositories</text><text x="420" y="325" fill="#fff" font-family="Arial, sans-serif" font-size="12" text-anchor="middle">Interfaces</text><rect width="120" height="50" x="500" y="290" fill="rgba(255,255,255,0.2)" rx="5"/><text x="560" y="310" fill="#fff" font-family="Arial, sans-serif" font-size="12" font-weight="bold" text-anchor="middle">Domain</text><text x="560" y="325" fill="#fff" font-family="Arial, sans-serif" font-size="12" text-anchor="middle">Services</text><path fill="none" stroke="#2c3e50" stroke-width="2" d="M400 360v30l-10-10m10 10 10-10"/><text x="420" y="378" fill="#2c3e50" font-family="Arial, sans-serif" font-size="12">Uses Repository Abstractions</text><rect width="700" height="120" x="50" y="400" fill="url(#c)" rx="10"/><text x="70" y="430" fill="#fff" font-family="Arial, sans-serif" font-size="18" font-weight="bold">💾 Data Layer (Infrastructure)</text><rect width="120" height="50" x="80" y="450" fill="rgba(255,255,255,0.2)" rx="5"/><text x="140" y="470" fill="#fff" font-family="Arial, sans-serif" font-size="12" font-weight="bold" text-anchor="middle">Repository</text><text x="140" y="485" fill="#fff" font-family="Arial, sans-serif" font-size="12" text-anchor="middle">Implementation</text><rect width="120" height="50" x="220" y="450" fill="rgba(255,255,255,0.2)" rx="5"/><text x="280" y="470" fill="#fff" font-family="Arial, sans-serif" font-size="12" font-weight="bold" text-anchor="middle">Room DB</text><text x="280" y="485" fill="#fff" font-family="Arial, sans-serif" font-size="12" text-anchor="middle">Local Storage</text><rect width="120" height="50" x="360" y="450" fill="rgba(255,255,255,0.2)" rx="5"/><text x="420" y="470" fill="#fff" font-family="Arial, sans-serif" font-size="12" font-weight="bold" text-anchor="middle">Retrofit</text><text x="420" y="485" fill="#fff" font-family="Arial, sans-serif" font-size="12" text-anchor="middle">Remote API</text><rect width="120" height="50" x="500" y="450" fill="rgba(255,255,255,0.2)" rx="5"/><text x="560" y="470" fill="#fff" font-family="Arial, sans-serif" font-size="12" font-weight="bold" text-anchor="middle">Data Sources</text><text x="560" y="485" fill="#fff" font-family="Arial, sans-serif" font-size="12" text-anchor="middle">Mappers</text><g transform="translate(50 540)"><rect width="700" height="40" fill="#ecf0f1" rx="5"/><text x="20" y="25" fill="#2c3e50" font-family="Arial, sans-serif" font-size="14" font-weight="bold">🎯 Regla de Dependencia: </text><text x="180" y="25" fill="#2c3e50" font-family="Arial, sans-serif" font-size="14">Las dependencias solo apuntan hacia adentro (hacia el dominio)</text></g></svg>