<svg xmlns="http://www.w3.org/2000/svg" width="800" height="400" fill="none" viewBox="0 0 800 400"><path fill="#1e293b" d="M0 0h800v400H0z"/><defs><pattern id="a" width="40" height="40" patternUnits="userSpaceOnUse"><path stroke="#334155" d="M40 0H0v40" opacity=".3"/></pattern></defs><path fill="url(#a)" d="M0 0h800v400H0z"/><rect width="200" height="80" x="50" y="100" fill="#4f46e5" opacity=".8" rx="10"/><text x="150" y="130" fill="#fff" font-family="Arial, sans-serif" font-size="16" font-weight="bold" text-anchor="middle">📊 MODEL</text><text x="150" y="150" fill="#e2e8f0" font-family="Arial, sans-serif" font-size="12" text-anchor="middle">Repository • Use Cases</text><text x="150" y="165" fill="#e2e8f0" font-family="Arial, sans-serif" font-size="12" text-anchor="middle">Room • Retrofit</text><rect width="200" height="80" x="300" y="50" fill="#059669" opacity=".8" rx="10"/><text x="400" y="80" fill="#fff" font-family="Arial, sans-serif" font-size="16" font-weight="bold" text-anchor="middle">🎭 VIEWMODEL</text><text x="400" y="100" fill="#e2e8f0" font-family="Arial, sans-serif" font-size="12" text-anchor="middle">LiveData • StateFlow</text><text x="400" y="115" fill="#e2e8f0" font-family="Arial, sans-serif" font-size="12" text-anchor="middle">Presentation Logic</text><rect width="200" height="80" x="550" y="100" fill="#dc2626" opacity=".8" rx="10"/><text x="650" y="130" fill="#fff" font-family="Arial, sans-serif" font-size="16" font-weight="bold" text-anchor="middle">👁️ VIEW</text><text x="650" y="150" fill="#e2e8f0" font-family="Arial, sans-serif" font-size="12" text-anchor="middle">Fragment • Activity</text><text x="650" y="165" fill="#e2e8f0" font-family="Arial, sans-serif" font-size="12" text-anchor="middle">Jetpack Compose</text><path stroke="#10b981" stroke-width="3" marker-end="url(#b)" d="m250 140 50-50"/><path stroke="#10b981" stroke-width="3" marker-end="url(#b)" d="m500 90 50 50"/><defs><marker id="b" markerHeight="7" markerWidth="10" orient="auto" refX="9" refY="3.5"><path fill="#10b981" d="m0 0 10 3.5L0 7z"/></marker></defs><g transform="translate(340 200)"><rect width="120" height="120" fill="#374151" stroke="#6b7280" stroke-width="2" rx="8"/><path stroke="#6b7280" d="M30 0v120M60 0v120M90 0v120M0 30h120M0 60h120M0 90h120"/><text x="15" y="22" font-size="16" text-anchor="middle">💣</text><text x="45" y="22" fill="#10b981" font-size="12" text-anchor="middle">1</text><text x="75" y="22" font-size="16" text-anchor="middle">🚩</text><text x="105" y="22" fill="#ef4444" font-size="12" text-anchor="middle">2</text><text x="15" y="52" fill="#10b981" font-size="12" text-anchor="middle">1</text><text x="45" y="52" fill="#3b82f6" font-size="12" text-anchor="middle">3</text><text x="75" y="52" font-size="16" text-anchor="middle">🚩</text><text x="105" y="52" fill="#ef4444" font-size="12" text-anchor="middle">2</text><text x="15" y="82" font-size="16" text-anchor="middle">🚩</text><text x="45" y="82" fill="#ef4444" font-size="12" text-anchor="middle">2</text><text x="75" y="82" font-size="16" text-anchor="middle">💣</text><text x="105" y="82" fill="#6b7280" text-anchor="middle">⬜</text><text x="15" y="112" fill="#6b7280" text-anchor="middle">⬜</text><text x="45" y="112" fill="#6b7280" text-anchor="middle">⬜</text><text x="75" y="112" fill="#6b7280" text-anchor="middle">⬜</text><text x="105" y="112" fill="#6b7280" text-anchor="middle">⬜</text></g><text x="400" y="40" fill="#f1f5f9" font-family="Arial, sans-serif" font-size="24" font-weight="bold" text-anchor="middle">MVVM Architecture</text><text x="400" y="360" fill="#94a3b8" font-family="Arial, sans-serif" font-size="14" text-anchor="middle">Implementación con ejemplo práctico de Buscaminas Android</text><text x="80" y="350" font-size="20">🤖</text><text x="150" y="350" font-size="20">📱</text><text x="650" y="350" font-size="20">⚡</text><text x="720" y="350" font-size="20">🧪</text></svg>