<svg xmlns="http://www.w3.org/2000/svg" width="800" height="400" viewBox="0 0 800 400"><defs><linearGradient id="a" x1="0%" x2="100%" y1="0%" y2="100%"><stop offset="0%" style="stop-color:#1e40af;stop-opacity:1"/><stop offset="100%" style="stop-color:#7c3aed;stop-opacity:1"/></linearGradient><linearGradient id="d" x1="0%" x2="100%" y1="0%" y2="100%"><stop offset="0%" style="stop-color:#fff;stop-opacity:.15"/><stop offset="100%" style="stop-color:#fff;stop-opacity:.05"/></linearGradient><linearGradient id="b" x1="0%" x2="100%" y1="0%" y2="100%"><stop offset="0%" style="stop-color:#10b981;stop-opacity:.8"/><stop offset="100%" style="stop-color:#059669;stop-opacity:.8"/></linearGradient><linearGradient id="c" x1="0%" x2="100%" y1="0%" y2="100%"><stop offset="0%" style="stop-color:#f59e0b;stop-opacity:.8"/><stop offset="100%" style="stop-color:#d97706;stop-opacity:.8"/></linearGradient></defs><path fill="url(#a)" d="M0 0h800v400H0z"/><rect width="320" height="180" x="50" y="60" fill="url(#b)" stroke="#fff" stroke-width="2" rx="15"/><text x="70" y="95" fill="#fff" font-family="Arial, sans-serif" font-size="28">📝</text><text x="120" y="100" fill="#fff" font-family="Arial, sans-serif" font-size="20" font-weight="bold">KDoc</text><text x="70" y="125" fill="#f0f9ff" font-family="Arial, sans-serif" font-size="14">Kotlin Documentation Format</text><text x="70" y="145" fill="#e0f2fe" font-family="Arial, sans-serif" font-size="12">• Similar to Javadoc</text><text x="70" y="160" fill="#e0f2fe" font-family="Arial, sans-serif" font-size="12">• IDE Integration</text><text x="70" y="175" fill="#e0f2fe" font-family="Arial, sans-serif" font-size="12">• @param, @return, @see</text><text x="70" y="190" fill="#e0f2fe" font-family="Arial, sans-serif" font-size="12">• Live tooltips</text><text x="70" y="205" fill="#e0f2fe" font-family="Arial, sans-serif" font-size="12">• Code samples</text><rect width="320" height="180" x="430" y="60" fill="url(#c)" stroke="#fff" stroke-width="2" rx="15"/><text x="450" y="95" fill="#fff" font-family="Arial, sans-serif" font-size="28">⚙️</text><text x="500" y="100" fill="#fff" font-family="Arial, sans-serif" font-size="20" font-weight="bold">Dokka</text><text x="450" y="125" fill="#fef3c7" font-family="Arial, sans-serif" font-size="14">Documentation Generator</text><text x="450" y="145" fill="#fef7cd" font-family="Arial, sans-serif" font-size="12">• HTML Generation</text><text x="450" y="160" fill="#fef7cd" font-family="Arial, sans-serif" font-size="12">• Multi-module support</text><text x="450" y="175" fill="#fef7cd" font-family="Arial, sans-serif" font-size="12">• Android API links</text><text x="450" y="190" fill="#fef7cd" font-family="Arial, sans-serif" font-size="12">• GitHub Pages</text><text x="450" y="205" fill="#fef7cd" font-family="Arial, sans-serif" font-size="12">• CI/CD Integration</text><rect width="640" height="80" x="80" y="270" fill="url(#d)" stroke="#fff" stroke-width="2" opacity=".9" rx="15"/><text x="100" y="295" fill="#fff" font-family="Arial, sans-serif" font-size="16" font-weight="bold">🚀 Developer Workflow Integration</text><circle cx="120" cy="320" r="12" fill="#22c55e" opacity=".9"/><text x="115" y="325" fill="#fff" font-family="Arial, sans-serif" font-size="10" font-weight="bold">1</text><text x="140" y="325" fill="#e0e0e0" font-family="Arial, sans-serif" font-size="11">Write Code</text><path stroke="#fff" stroke-width="2" marker-end="url(#arrowhead)" d="M180 320h20" opacity=".6"/><circle cx="220" cy="320" r="12" fill="#3b82f6" opacity=".9"/><text x="215" y="325" fill="#fff" font-family="Arial, sans-serif" font-size="10" font-weight="bold">2</text><text x="240" y="325" fill="#e0e0e0" font-family="Arial, sans-serif" font-size="11">Add KDoc</text><path stroke="#fff" stroke-width="2" d="M280 320h20" opacity=".6"/><circle cx="320" cy="320" r="12" fill="#8b5cf6" opacity=".9"/><text x="315" y="325" fill="#fff" font-family="Arial, sans-serif" font-size="10" font-weight="bold">3</text><text x="340" y="325" fill="#e0e0e0" font-family="Arial, sans-serif" font-size="11">Build with Dokka</text><path stroke="#fff" stroke-width="2" d="M420 320h20" opacity=".6"/><circle cx="460" cy="320" r="12" fill="#f59e0b" opacity=".9"/><text x="455" y="325" fill="#fff" font-family="Arial, sans-serif" font-size="10" font-weight="bold">4</text><text x="480" y="325" fill="#e0e0e0" font-family="Arial, sans-serif" font-size="11">Auto-publish</text><path stroke="#fff" stroke-width="2" d="M540 320h20" opacity=".6"/><circle cx="580" cy="320" r="12" fill="#ef4444" opacity=".9"/><text x="575" y="325" fill="#fff" font-family="Arial, sans-serif" font-size="10" font-weight="bold">5</text><text x="600" y="325" fill="#e0e0e0" font-family="Arial, sans-serif" font-size="11">Share docs</text><circle cx="120" cy="30" r="18" fill="#3ddc84" opacity=".8"/><text x="110" y="38" fill="#fff" font-family="Arial, sans-serif" font-size="20">🤖</text><rect width="60" height="30" x="160" y="15" fill="#7f52ff" opacity=".8" rx="5"/><text x="175" y="35" fill="#fff" font-family="Arial, sans-serif" font-size="12" font-weight="bold">Kotlin</text><circle cx="680" cy="30" r="20" fill="#fff" opacity=".2"/><text x="668" y="40" fill="#fff" font-family="Arial, sans-serif" font-size="24">📚</text><circle cx="50" cy="15" r="3" fill="gold" opacity=".6"/><circle cx="750" cy="25" r="2" fill="gold" opacity=".8"/><circle cx="30" cy="380" r="4" fill="gold" opacity=".4"/><circle cx="770" cy="370" r="3" fill="gold" opacity=".7"/><rect width="120" height="8" x="250" y="15" fill="#fff" opacity=".2" rx="4"/><rect width="80" height="8" x="380" y="15" fill="#fff" opacity=".15" rx="4"/><rect width="100" height="8" x="470" y="15" fill="#fff" opacity=".1" rx="4"/><text x="400" y="385" fill="#fff" font-family="Arial, sans-serif" font-size="18" font-weight="bold" text-anchor="middle">Android Documentation: KDoc, Dokka &amp; Professional Workflow</text></svg>