<svg xmlns="http://www.w3.org/2000/svg" width="800" height="400" viewBox="0 0 800 400"><defs><linearGradient id="c" x1="0%" x2="100%" y1="0%" y2="100%"><stop offset="0%" style="stop-color:#667eea;stop-opacity:1"/><stop offset="50%" style="stop-color:#764ba2;stop-opacity:1"/><stop offset="100%" style="stop-color:#f093fb;stop-opacity:1"/></linearGradient><linearGradient id="a" x1="0%" x2="100%" y1="0%" y2="100%"><stop offset="0%" style="stop-color:#f7fafc;stop-opacity:1"/><stop offset="100%" style="stop-color:#edf2f7;stop-opacity:1"/></linearGradient><radialGradient id="b" cx="50%" cy="50%" r="50%"><stop offset="0%" style="stop-color:#48bb78;stop-opacity:1"/><stop offset="100%" style="stop-color:#38a169;stop-opacity:1"/></radialGradient></defs><path fill="url(#a)" d="M0 0h800v400H0z"/><path fill="url(#b)" d="M150 80q0-20 20-20h60q20 0 20 20v80q0 40-50 60-50-20-50-60Z" opacity=".9"/><path fill="none" stroke="#fff" stroke-linecap="round" stroke-linejoin="round" stroke-width="6" d="m170 140 20 20 40-40"/><rect width="200" height="40" x="320" y="100" fill="#fed7d7" opacity=".8" rx="8"/><text x="330" y="125" fill="#e53e3e" font-family="'JetBrains Mono', monospace" font-size="16">NullPointerException</text><path stroke="#e53e3e" stroke-width="4" d="m320 100 200 40M520 100l-200 40"/><rect width="180" height="30" x="320" y="180" fill="#c6f6d5" opacity=".8" rx="6"/><text x="330" y="200" fill="#22543d" font-family="'JetBrains Mono', monospace" font-size="14">user?.name</text><rect width="200" height="30" x="320" y="220" fill="#c6f6d5" opacity=".8" rx="6"/><text x="330" y="240" fill="#22543d" font-family="'JetBrains Mono', monospace" font-size="14">data?.let { }</text><rect width="220" height="30" x="320" y="260" fill="#c6f6d5" opacity=".8" rx="6"/><text x="330" y="280" fill="#22543d" font-family="'JetBrains Mono', monospace" font-size="14">value ?: &quot;default&quot;</text><path fill="url(#c)" d="M580 80h100l-50 50 50 50H580z" opacity=".7"/><circle cx="600" cy="250" r="20" fill="#667eea" opacity=".3"/><text x="590" y="260" fill="#667eea" font-family="Arial, sans-serif" font-size="24" font-weight="bold">?</text><circle cx="650" cy="250" r="20" fill="#48bb78" opacity=".3"/><text x="640" y="260" fill="#48bb78" font-family="Arial, sans-serif" font-size="24" font-weight="bold">✓</text><text x="320" y="340" fill="#667eea" font-family="'SF Pro Display', 'Segoe UI', sans-serif" font-size="32" font-weight="bold">Null Safety</text><circle cx="700" cy="120" r="4" fill="#764ba2" opacity=".6"/><circle cx="720" cy="140" r="3" fill="#f093fb" opacity=".6"/><circle cx="680" cy="160" r="3" fill="#667eea" opacity=".6"/><ellipse cx="100" cy="320" fill="#a0c37e" opacity=".4" rx="25" ry="15"/><rect width="30" height="20" x="85" y="305" fill="#a0c37e" opacity=".4" rx="10"/><circle cx="92" cy="312" r="2" fill="#fff"/><circle cx="108" cy="312" r="2" fill="#fff"/><path stroke="#a0c37e" stroke-width="2" d="M95 300v-5M105 300v-5"/></svg>