<svg xmlns="http://www.w3.org/2000/svg" width="400" height="200" viewBox="0 0 400 200"><defs><linearGradient id="a" x1="0%" x2="100%" y1="0%" y2="100%"><stop offset="0%" style="stop-color:#667eea"/><stop offset="100%" style="stop-color:#764ba2"/></linearGradient><linearGradient id="b" x1="0%" x2="100%" y1="0%" y2="100%"><stop offset="0%" style="stop-color:#fff"/><stop offset="100%" style="stop-color:#f8f9fa"/></linearGradient></defs><path fill="url(#a)" d="M0 0h400v200H0z"/><rect width="300" height="140" x="50" y="30" fill="url(#b)" stroke="#e0e0e0" stroke-width="2" rx="15"/><g transform="translate(80 50)"><path fill="#2196f3" d="M20 10h20L30 0ZM28 10h4v30h-4z"/><circle cx="30" cy="45" r="3" fill="#2196f3"/><path fill="none" stroke="#4caf50" stroke-width="3" d="M50 25h30m-5-5 5 5-5 5"/><rect width="30" height="20" x="90" y="15" fill="#ff9800" stroke="#e65100" stroke-width="2" rx="5"/><text x="105" y="27" fill="#fff" font-family="Arial" font-size="8" text-anchor="middle">DI</text></g><g transform="translate(220 45)"><circle cx="15" cy="15" r="12" fill="#9c27b0" stroke="#6a1b9a" stroke-width="2"/><text x="15" y="19" fill="#fff" font-family="Arial" font-size="8" text-anchor="middle">M1</text><circle cx="35" cy="35" r="12" fill="#00bcd4" stroke="#006064" stroke-width="2"/><text x="35" y="39" fill="#fff" font-family="Arial" font-size="8" text-anchor="middle">M2</text><circle cx="15" cy="55" r="12" fill="#4caf50" stroke="#2e7d32" stroke-width="2"/><text x="15" y="59" fill="#fff" font-family="Arial" font-size="8" text-anchor="middle">M3</text><path stroke="#666" stroke-width="1.5" d="m27 15-4 20M23 35l4 20M15 27v16"/></g><g transform="translate(320 60)"><path fill="#ffc107" stroke="#ff8f00" d="M0 0h10l5 10-5 10H0l5-10Z"/><circle cx="7.5" cy="10" r="2" fill="#ff8f00"/></g><text x="200" y="190" fill="#fff" font-family="Arial" font-size="14" font-weight="bold" text-anchor="middle">
    Inyección de Dependencias
  </text></svg>