<svg xmlns="http://www.w3.org/2000/svg" width="800" height="400" fill="none" viewBox="0 0 800 400"><path fill="#1e293b" d="M0 0h800v400H0z"/><defs><pattern id="a" width="40" height="40" patternUnits="userSpaceOnUse"><path stroke="#334155" d="M40 0H0v40" opacity=".3"/></pattern></defs><path fill="url(#a)" d="M0 0h800v400H0z"/><rect width="280" height="100" x="80" y="80" fill="#4f46e5" opacity=".9" rx="15"/><text x="220" y="110" fill="#fff" font-family="Arial, sans-serif" font-size="18" font-weight="bold" text-anchor="middle">🗃️ StateFlow</text><text x="220" y="130" fill="#e2e8f0" font-family="Arial, sans-serif" font-size="12" text-anchor="middle">Estado Actual • Replay: 1</text><text x="220" y="145" fill="#e2e8f0" font-family="Arial, sans-serif" font-size="12" text-anchor="middle">Hot Stream • Conflated</text><text x="220" y="160" fill="#e2e8f0" font-family="Arial, sans-serif" font-size="11" text-anchor="middle">Perfect para UI State</text><rect width="280" height="100" x="440" y="80" fill="#059669" opacity=".9" rx="15"/><text x="580" y="110" fill="#fff" font-family="Arial, sans-serif" font-size="18" font-weight="bold" text-anchor="middle">📡 SharedFlow</text><text x="580" y="130" fill="#e2e8f0" font-family="Arial, sans-serif" font-size="12" text-anchor="middle">Eventos • Replay: Configurable</text><text x="580" y="145" fill="#e2e8f0" font-family="Arial, sans-serif" font-size="12" text-anchor="middle">Hot Stream • Buffer Config</text><text x="580" y="160" fill="#e2e8f0" font-family="Arial, sans-serif" font-size="11" text-anchor="middle">Perfect para One-time Events</text><path stroke="#10b981" stroke-width="4" d="M220 190q180 60 360 0" opacity=".8"/><g transform="translate(100 220)"><rect width="120" height="60" fill="#6366f1" opacity=".7" rx="8"/><text x="60" y="20" fill="#fff" font-family="Arial, sans-serif" font-size="10" font-weight="bold" text-anchor="middle">UI State</text><text x="60" y="35" fill="#e2e8f0" font-family="Arial, sans-serif" font-size="9" text-anchor="middle">Loading → Success</text><text x="60" y="48" fill="#e2e8f0" font-family="Arial, sans-serif" font-size="9" text-anchor="middle">New subscribers get current</text></g><g transform="translate(280 220)"><rect width="120" height="60" fill="#0d9488" opacity=".7" rx="8"/><text x="60" y="20" fill="#fff" font-family="Arial, sans-serif" font-size="10" font-weight="bold" text-anchor="middle">Transform</text><text x="60" y="35" fill="#e2e8f0" font-family="Arial, sans-serif" font-size="9" text-anchor="middle">map • filter • combine</text><text x="60" y="48" fill="#e2e8f0" font-family="Arial, sans-serif" font-size="9" text-anchor="middle">stateIn • shareIn</text></g><g transform="translate(460 220)"><rect width="120" height="60" fill="#059669" opacity=".7" rx="8"/><text x="60" y="20" fill="#fff" font-family="Arial, sans-serif" font-size="10" font-weight="bold" text-anchor="middle">UI Events</text><text x="60" y="35" fill="#e2e8f0" font-family="Arial, sans-serif" font-size="9" text-anchor="middle">Click → Navigate</text><text x="60" y="48" fill="#e2e8f0" font-family="Arial, sans-serif" font-size="9" text-anchor="middle">One-time emissions</text></g><g transform="translate(580 220)"><rect width="120" height="60" fill="#dc2626" opacity=".7" rx="8"/><text x="60" y="20" fill="#fff" font-family="Arial, sans-serif" font-size="10" font-weight="bold" text-anchor="middle">⚠️ Memory</text><text x="60" y="35" fill="#fecaca" font-family="Arial, sans-serif" font-size="9" text-anchor="middle">Leaks Prevention</text><text x="60" y="48" fill="#fecaca" font-family="Arial, sans-serif" font-size="9" text-anchor="middle">Proper lifecycle</text></g><path stroke="#8b5cf6" stroke-width="2" marker-end="url(#b)" d="M220 250h60"/><path stroke="#8b5cf6" stroke-width="2" marker-end="url(#b)" d="M400 250h60"/><path stroke="#ef4444" stroke-width="2" marker-end="url(#c)" d="M580 250v30"/><defs><marker id="b" markerHeight="7" markerWidth="10" orient="auto" refX="9" refY="3.5"><path fill="#8b5cf6" d="m0 0 10 3.5L0 7z"/></marker><marker id="c" markerHeight="7" markerWidth="10" orient="auto" refX="9" refY="3.5"><path fill="#ef4444" d="m0 0 10 3.5L0 7z"/></marker></defs><text x="400" y="35" fill="#f1f5f9" font-family="Arial, sans-serif" font-size="24" font-weight="bold" text-anchor="middle">StateFlow vs SharedFlow</text><text x="400" y="55" fill="#94a3b8" font-family="Arial, sans-serif" font-size="14" text-anchor="middle">Gestión Avanzada de Estado y Eventos para Expertos</text><text x="400" y="350" fill="#94a3b8" font-family="Arial, sans-serif" font-size="13" text-anchor="middle">Domina las diferencias críticas y evita memory leaks</text><text x="100" y="370" font-size="18">🔄</text><text x="150" y="370" font-size="18">⚡</text><text x="200" y="370" font-size="18">🧠</text><text x="600" y="370" font-size="18">🛡️</text><text x="650" y="370" font-size="18">📊</text><text x="700" y="370" font-size="18">🚀</text></svg>