<svg xmlns="http://www.w3.org/2000/svg" width="800" height="400" viewBox="0 0 800 400"><defs><linearGradient id="a" x1="0%" x2="100%" y1="0%" y2="100%"><stop offset="0%" style="stop-color:#667eea;stop-opacity:1"/><stop offset="100%" style="stop-color:#764ba2;stop-opacity:1"/></linearGradient><linearGradient id="b" x1="0%" x2="100%" y1="0%" y2="100%"><stop offset="0%" style="stop-color:#fff;stop-opacity:.1"/><stop offset="100%" style="stop-color:#fff;stop-opacity:.05"/></linearGradient></defs><path fill="url(#a)" d="M0 0h800v400H0z"/><rect width="300" height="200" x="50" y="50" fill="url(#b)" stroke="#fff" stroke-width="2" opacity=".8" rx="15"/><text x="70" y="90" fill="gold" font-family="Arial, sans-serif" font-size="24">📚</text><text x="110" y="95" fill="#fff" font-family="Arial, sans-serif" font-size="16" font-weight="bold">API Documentation</text><text x="70" y="120" fill="#e0e0e0" font-family="Arial, sans-serif" font-size="12">Auto-generated with Dokka</text><text x="70" y="140" fill="#e0e0e0" font-family="Arial, sans-serif" font-size="12">• Kotlin/KDoc support</text><text x="70" y="155" fill="#e0e0e0" font-family="Arial, sans-serif" font-size="12">• Android-specific types</text><text x="70" y="170" fill="#e0e0e0" font-family="Arial, sans-serif" font-size="12">• Cross-references</text><rect width="300" height="200" x="380" y="50" fill="url(#b)" stroke="#fff" stroke-width="2" opacity=".8" rx="15"/><text x="400" y="90" fill="gold" font-family="Arial, sans-serif" font-size="24">📝</text><text x="440" y="95" fill="#fff" font-family="Arial, sans-serif" font-size="16" font-weight="bold">CHANGELOG.md</text><text x="400" y="120" fill="#e0e0e0" font-family="Arial, sans-serif" font-size="12">Semantic Release powered</text><text x="400" y="140" fill="#e0e0e0" font-family="Arial, sans-serif" font-size="12">🚀 feat: New features</text><text x="400" y="155" fill="#e0e0e0" font-family="Arial, sans-serif" font-size="12">🐛 fix: Bug fixes</text><text x="400" y="170" fill="#e0e0e0" font-family="Arial, sans-serif" font-size="12">⚡ perf: Performance</text><rect width="700" height="80" x="50" y="280" fill="url(#b)" stroke="#fff" stroke-width="2" opacity=".6" rx="15"/><text x="70" y="305" fill="#fff" font-family="Arial, sans-serif" font-size="14" font-weight="bold">🔄 GitHub Actions Pipeline</text><circle cx="100" cy="330" r="12" fill="#4ade80" opacity=".8"/><text x="95" y="335" fill="#fff" font-family="Arial, sans-serif" font-size="10" font-weight="bold">1</text><text x="120" y="335" fill="#e0e0e0" font-family="Arial, sans-serif" font-size="11">Analyze</text><path stroke="#fff" stroke-width="2" d="M125 330h30" opacity=".6"/><circle cx="170" cy="330" r="12" fill="#f59e0b" opacity=".8"/><text x="165" y="335" fill="#fff" font-family="Arial, sans-serif" font-size="10" font-weight="bold">2</text><text x="190" y="335" fill="#e0e0e0" font-family="Arial, sans-serif" font-size="11">Build</text><path stroke="#fff" stroke-width="2" d="M195 330h30" opacity=".6"/><circle cx="240" cy="330" r="12" fill="#8b5cf6" opacity=".8"/><text x="235" y="335" fill="#fff" font-family="Arial, sans-serif" font-size="10" font-weight="bold">3</text><text x="260" y="335" fill="#e0e0e0" font-family="Arial, sans-serif" font-size="11">Generate</text><path stroke="#fff" stroke-width="2" d="M285 330h30" opacity=".6"/><circle cx="330" cy="330" r="12" fill="#ef4444" opacity=".8"/><text x="325" y="335" fill="#fff" font-family="Arial, sans-serif" font-size="10" font-weight="bold">4</text><text x="350" y="335" fill="#e0e0e0" font-family="Arial, sans-serif" font-size="11">Deploy</text><circle cx="680" cy="140" r="40" fill="#3ddc84" opacity=".8"/><text x="665" y="150" fill="#fff" font-family="Arial, sans-serif" font-size="30">🤖</text><rect width="80" height="40" x="640" y="200" fill="#7f52ff" opacity=".8" rx="8"/><text x="650" y="225" fill="#fff" font-family="Arial, sans-serif" font-size="14" font-weight="bold">Kotlin/JVM</text><circle cx="150" cy="20" r="3" fill="gold" opacity=".6"/><circle cx="600" cy="30" r="2" fill="gold" opacity=".8"/><circle cx="750" cy="80" r="4" fill="gold" opacity=".4"/><circle cx="50" cy="360" r="3" fill="gold" opacity=".7"/><text x="400" y="385" fill="#fff" font-family="Arial, sans-serif" font-size="18" font-weight="bold" text-anchor="middle">Automated Documentation for Android Projects</text></svg>