<svg xmlns="http://www.w3.org/2000/svg" width="800" height="400" viewBox="0 0 800 400"><defs><linearGradient id="b" x1="0%" x2="100%" y1="0%" y2="100%"><stop offset="0%" style="stop-color:#7f52ff;stop-opacity:1"/><stop offset="50%" style="stop-color:#e44857;stop-opacity:1"/><stop offset="100%" style="stop-color:#f17d2e;stop-opacity:1"/></linearGradient><linearGradient id="a" x1="0%" x2="100%" y1="0%" y2="100%"><stop offset="0%" style="stop-color:#f8f9fa;stop-opacity:1"/><stop offset="100%" style="stop-color:#e9ecef;stop-opacity:1"/></linearGradient></defs><path fill="url(#a)" d="M0 0h800v400H0z"/><path fill="url(#b)" d="M50 50h300L200 200l150 150H50z" opacity=".9"/><rect width="320" height="60" x="400" y="80" fill="#2d3748" opacity=".1" rx="8"/><rect width="280" height="12" x="420" y="95" fill="#4a5568" rx="6"/><rect width="200" height="12" x="420" y="115" fill="#718096" rx="6"/><rect width="320" height="60" x="400" y="160" fill="#2d3748" opacity=".1" rx="8"/><rect width="240" height="12" x="420" y="175" fill="#4a5568" rx="6"/><rect width="180" height="12" x="420" y="195" fill="#718096" rx="6"/><rect width="320" height="60" x="400" y="240" fill="#2d3748" opacity=".1" rx="8"/><rect width="260" height="12" x="420" y="255" fill="#4a5568" rx="6"/><rect width="160" height="12" x="420" y="275" fill="#718096" rx="6"/><text x="450" y="340" fill="#7f52ff" font-family="'JetBrains Mono', 'Courier New', monospace" font-size="36" font-weight="bold">.let</text><circle cx="680" cy="120" r="8" fill="#e44857" opacity=".6"/><circle cx="720" cy="140" r="6" fill="#f17d2e" opacity=".6"/><circle cx="660" cy="160" r="5" fill="#7f52ff" opacity=".6"/><path fill="none" stroke="#7f52ff" stroke-width="3" marker-end="url(#c)" d="M380 200h20"/><defs><marker id="c" markerHeight="7" markerWidth="10" orient="auto" refX="9" refY="3.5"><path fill="#7f52ff" d="m0 0 10 3.5L0 7z"/></marker></defs><path fill="none" stroke="#a0c37e" stroke-width="2" d="M100 300q20-20 40 0v20q-20 20-40 0Z" opacity=".3"/><circle cx="110" cy="305" r="2" fill="#a0c37e" opacity=".3"/><circle cx="130" cy="305" r="2" fill="#a0c37e" opacity=".3"/></svg>